<svg width="452" height="413" viewBox="0 0 452 413" fill="none" xmlns="http://www.w3.org/2000/svg">
<path d="M368.298 7.56909L265.652 45.3428" stroke="#D92120" stroke-linecap="round" stroke-linejoin="round" stroke-dasharray="5.67 5.67"/>
<path d="M64.5818 170.747L1 236.909" stroke="#D92120" stroke-linecap="round" stroke-linejoin="round" stroke-dasharray="5.67 5.67"/>
<path d="M264.887 271.223L361.081 411.114L450.998 185.528L264.887 271.223Z" stroke="#D92120" stroke-linecap="round" stroke-linejoin="round" stroke-dasharray="5.67 5.67"/>
<path d="M264.887 271.223L265.649 45.343L450.998 185.528" stroke="#D92120" stroke-linecap="round" stroke-linejoin="round" stroke-dasharray="5.67 5.67"/>
<path d="M265.651 45.343L64.582 170.747L264.888 271.223" stroke="#D92120" stroke-linecap="round" stroke-linejoin="round" stroke-dasharray="5.67 5.67"/>
<path d="M64.582 170.747L114.732 397.506L264.888 271.223" stroke="#D92120" stroke-linecap="round" stroke-linejoin="round" stroke-dasharray="5.67 5.67"/>
<path d="M64.582 170.747L107.341 1L265.651 45.343" stroke="#D92120" stroke-linecap="round" stroke-linejoin="round" stroke-dasharray="5.67 5.67"/>
<path d="M114.73 397.507L361.081 411.115" stroke="#D92120" stroke-linecap="round" stroke-linejoin="round" stroke-dasharray="5.67 5.67"/>
<path d="M200.781 132.152L107.344 1" stroke="#D92120" stroke-width="2" stroke-linecap="round" stroke-linejoin="round"/>
<path d="M1 236.91L202.362 404.78" stroke="#D92120" stroke-width="2" stroke-linecap="round" stroke-linejoin="round"/>
<path d="M1 236.91L200.778 132.152" stroke="#D92120" stroke-width="2" stroke-linecap="round" stroke-linejoin="round"/>
<path d="M361.081 411.115L202.361 404.78L114.73 397.507" stroke="#D92120" stroke-width="2" stroke-linecap="round" stroke-linejoin="round"/>
<path d="M361.082 411.114L437.978 255.855L451 185.528L368.296 7.56934L107.341 1L1 236.91L114.732 397.506" stroke="#D92120" stroke-width="2" stroke-linecap="round" stroke-linejoin="round"/>
<path d="M200.777 132.152L202.361 404.78L437.977 255.855" stroke="#D92120" stroke-width="2" stroke-linecap="round" stroke-linejoin="round"/>
<path d="M368.295 7.56909L200.777 132.152L437.977 255.855L368.295 7.56909Z" stroke="#D92120" stroke-width="2" stroke-linecap="round" stroke-linejoin="round"/>
</svg>
