<svg width="41" height="40" viewBox="0 0 41 40" fill="none" xmlns="http://www.w3.org/2000/svg">
<path d="M20.75 26.25C24.2018 26.25 27 23.4518 27 20C27 16.5482 24.2018 13.75 20.75 13.75C17.2982 13.75 14.5 16.5482 14.5 20C14.5 23.4518 17.2982 26.25 20.75 26.25Z" stroke="white" stroke-width="2" stroke-miterlimit="10"/>
<path d="M27.625 5.625H13.875C9.73286 5.625 6.375 8.98286 6.375 13.125V26.875C6.375 31.0171 9.73286 34.375 13.875 34.375H27.625C31.7671 34.375 35.125 31.0171 35.125 26.875V13.125C35.125 8.98286 31.7671 5.625 27.625 5.625Z" stroke="white" stroke-width="2" stroke-linecap="round" stroke-linejoin="round"/>
<path d="M28.875 13.75C29.9105 13.75 30.75 12.9105 30.75 11.875C30.75 10.8395 29.9105 10 28.875 10C27.8395 10 27 10.8395 27 11.875C27 12.9105 27.8395 13.75 28.875 13.75Z" fill="white"/>
</svg>
