<svg width="258" height="193" viewBox="0 0 258 193" fill="none" xmlns="http://www.w3.org/2000/svg">
<path d="M226.536 133.766L242.461 71.8988L238.969 21.9549L197.009 1.11567L55.9393 10.9802L30.8494 32.0151M226.536 133.766L244.17 132.533L242.516 108.876L256.582 129.024L245.089 145.677L227.455 146.91L203.864 135.352M226.536 133.766L241.202 71.9868L239.575 66.8177M226.536 133.766C222.063 126.343 217.942 120.593 213.822 114.844C209.701 109.095 205.581 103.346 201.107 95.9224M203.864 135.352L179.96 155.514L166.867 185.486L143.406 139.579M203.864 135.352L201.107 95.9224M143.406 139.579L100.581 142.574L83.7369 191.299L25.0081 147.859C29.8082 107.901 31.715 33.806 0.940984 57.0898L30.8494 32.0151M143.406 139.579L166.575 108.903M109.5 89.1208L22.51 39.7326C25.5026 36.9002 28.2777 34.3351 30.8494 32.0151M109.5 89.1208L28.0244 118.591M109.5 89.1208L27.5272 147.683M109.5 89.1208L166.575 108.903M109.5 89.1208L194.674 3.92045M109.5 89.1208L61.1613 13.2565M109.5 89.1208L123.09 30.0579M166.575 108.903L201.345 135.528M166.575 108.903L174.446 76.6549M174.446 76.6549L239.575 66.8177M174.446 76.6549L201.107 95.9224M174.446 76.6549L212.859 10.5733M174.446 76.6549L194.674 3.92045M239.575 66.8177L201.107 95.9224M239.575 66.8177L237.709 22.043L212.859 10.5733M212.859 10.5733L194.674 3.92045M194.674 3.92045L123.09 30.0579M194.674 3.92045C191.504 2.02902 104.345 9.35642 61.1613 13.2565M61.1613 13.2565L123.09 30.0579M61.1613 13.2565C61.3194 10.0598 55.2102 10.0388 30.8494 32.0151" stroke="white"/>
</svg>
