<svg width="47" height="36" viewBox="0 0 47 36" fill="none" xmlns="http://www.w3.org/2000/svg">
<path d="M40.2854 24.7501L43.0882 13.8614L42.4735 5.07126L35.0886 1.40356L10.2603 3.13972L5.84448 6.84186M40.2854 24.7501L43.3889 24.5331L43.0977 20.3693L45.5733 23.9154L43.5506 26.8463L40.4471 27.0633L36.2951 25.0291M40.2854 24.7501L42.8665 13.8769L42.5801 12.9671M40.2854 24.7501C39.498 23.4435 38.7728 22.4317 38.0476 21.4198C37.3224 20.408 36.5972 19.3961 35.8098 18.0895M36.2951 25.0291L32.0879 28.5776L29.7836 33.8527L25.6544 25.7732M36.2951 25.0291L35.8098 18.0895M25.6544 25.7732L18.1173 26.3002L15.1527 34.8758L4.81641 27.2303C5.66124 20.1977 5.99683 7.15705 0.580602 11.255L5.84448 6.84186M25.6544 25.7732L29.7322 20.3741M19.6871 16.8925L4.37675 8.20014C4.90345 7.70164 5.39187 7.25018 5.84448 6.84186M19.6871 16.8925L5.34728 22.0793M19.6871 16.8925L5.25978 27.1993M19.6871 16.8925L29.7322 20.3741M19.6871 16.8925L34.6776 1.8972M19.6871 16.8925L11.1794 3.54035M19.6871 16.8925L22.0789 6.49739M29.7322 20.3741L35.8517 25.0601M29.7322 20.3741L31.1174 14.6985M31.1174 14.6985L42.5801 12.9671M31.1174 14.6985L35.8098 18.0895M31.1174 14.6985L37.8781 3.06809M31.1174 14.6985L34.6776 1.8972M42.5801 12.9671L35.8098 18.0895M42.5801 12.9671L42.2518 5.08676L37.8781 3.06809M37.8781 3.06809L34.6776 1.8972M34.6776 1.8972L22.0789 6.49739M34.6776 1.8972C34.1196 1.5643 18.7796 2.85393 11.1794 3.54035M11.1794 3.54035L22.0789 6.49739M11.1794 3.54035C11.2072 2.97773 10.132 2.97402 5.84448 6.84186" stroke="white"/>
</svg>
