<svg width="34" height="26" viewBox="0 0 34 26" fill="none" xmlns="http://www.w3.org/2000/svg">
<path d="M29.2526 17.4876L31.2911 9.56853L30.844 3.17571L25.4732 0.508294L7.41623 1.77096L4.20472 4.46343M29.2526 17.4876L31.5097 17.3298L31.298 14.3016L33.0984 16.8806L31.6274 19.0121L29.3703 19.1699L26.3506 17.6905M29.2526 17.4876L31.1298 9.57979L30.9216 8.91815M29.2526 17.4876C28.68 16.5373 28.1526 15.8015 27.6252 15.0656C27.0977 14.3297 26.5703 13.5938 25.9977 12.6436M26.3506 17.6905L23.2909 20.2712L21.615 24.1076L18.6119 18.2317M26.3506 17.6905L25.9977 12.6436M18.6119 18.2317L13.1304 18.615L10.9743 24.8517L3.45704 19.2914C4.07145 14.1768 4.31552 4.69266 0.376446 7.67298L4.20472 4.46343M18.6119 18.2317L21.5776 14.3051M14.2721 11.7729L3.13728 5.45127C3.52034 5.08872 3.87555 4.76038 4.20472 4.46343M14.2721 11.7729L3.84312 15.5452M14.2721 11.7729L3.77948 19.2688M14.2721 11.7729L21.5776 14.3051M14.2721 11.7729L25.1742 0.867306M14.2721 11.7729L8.08465 2.06233M14.2721 11.7729L16.0116 4.2129M21.5776 14.3051L26.0282 17.7131M21.5776 14.3051L22.585 10.1773M22.585 10.1773L30.9216 8.91815M22.585 10.1773L25.9977 12.6436M22.585 10.1773L27.5019 1.71887M22.585 10.1773L25.1742 0.867306M30.9216 8.91815L25.9977 12.6436M30.9216 8.91815L30.6828 3.18699L27.5019 1.71887M27.5019 1.71887L25.1742 0.867306M25.1742 0.867306L16.0116 4.2129M25.1742 0.867306C24.7685 0.625203 13.6121 1.56311 8.08465 2.06233M8.08465 2.06233L16.0116 4.2129M8.08465 2.06233C8.10489 1.65315 7.32291 1.65045 4.20472 4.46343" stroke="#212121"/>
</svg>
