<svg width="704" height="749" viewBox="0 0 704 749" fill="none" xmlns="http://www.w3.org/2000/svg">
<g clip-path="url(#clip0_106_21988)">
<circle opacity="0.4" cx="587.158" cy="189.158" r="559.658" fill="white" stroke="#D92120"/>
<g opacity="0.3" filter="url(#filter0_d_106_21988)">
<circle cx="637.78" cy="290.001" r="407.387" fill="white"/>
</g>
<g opacity="0.2" filter="url(#filter1_d_106_21988)">
<circle cx="872.54" cy="398.54" r="305.54" fill="white"/>
</g>
<g filter="url(#filter2_d_106_21988)">
<rect y="267" width="336.503" height="205.553" rx="7.90588" fill="white"/>
</g>
<path d="M30.5278 301.581H37.7617C38.8053 301.581 39.6275 301.344 40.2283 300.87C40.845 300.395 41.1533 299.747 41.1533 298.925C41.1533 298.087 40.845 297.439 40.2283 296.98C39.6275 296.506 38.8053 296.269 37.7617 296.269H30.0772L31.4765 294.513V311.353H28.3458V293.565H38.0463C39.2954 293.565 40.3865 293.794 41.3194 294.253C42.2681 294.695 43.0033 295.32 43.5251 296.126C44.0627 296.917 44.3315 297.85 44.3315 298.925C44.3315 299.969 44.0627 300.894 43.5251 301.7C43.0033 302.491 42.2681 303.115 41.3194 303.574C40.3865 304.016 39.2954 304.238 38.0463 304.238H30.5278V301.581ZM34.038 303.028H37.7143L44.7821 311.353H41.0347L34.038 303.028ZM53.4902 311.685C51.9248 311.685 50.5334 311.393 49.3159 310.808C48.0984 310.207 47.1418 309.377 46.4461 308.317C45.7504 307.258 45.4025 306.024 45.4025 304.617C45.4025 303.226 45.7266 302.008 46.3749 300.965C47.039 299.905 47.9482 299.083 49.1024 298.498C50.2725 297.897 51.6086 297.597 53.1107 297.597C54.6128 297.597 55.9094 297.937 57.0004 298.617C58.1072 299.281 58.9611 300.222 59.5619 301.439C60.1628 302.657 60.4632 304.088 60.4632 305.732H47.8217V303.384H58.9216L57.3799 304.261C57.3325 303.376 57.119 302.617 56.7395 301.985C56.3759 301.352 55.8778 300.87 55.2453 300.538C54.6287 300.19 53.8934 300.016 53.0396 300.016C52.1383 300.016 51.3477 300.198 50.6678 300.561C50.0037 300.925 49.4819 301.439 49.1024 302.103C48.723 302.751 48.5332 303.526 48.5332 304.427C48.5332 305.424 48.7546 306.285 49.1973 307.013C49.6559 307.74 50.2962 308.301 51.1184 308.697C51.9565 309.076 52.9447 309.266 54.0832 309.266C55.1109 309.266 56.1624 309.108 57.2376 308.792C58.3128 308.459 59.2615 308.001 60.0837 307.416V309.645C59.2615 310.278 58.2575 310.776 57.0716 311.14C55.9015 311.503 54.7077 311.685 53.4902 311.685ZM69.2567 309.977H68.0708L73.5733 297.929H76.8701L70.324 311.353H66.8612L60.3151 297.929H63.7068L69.2567 309.977ZM84.8533 311.685C83.2879 311.685 81.8965 311.393 80.679 310.808C79.4615 310.207 78.5049 309.377 77.8091 308.317C77.1134 307.258 76.7656 306.024 76.7656 304.617C76.7656 303.226 77.0897 302.008 77.738 300.965C78.4021 299.905 79.3113 299.083 80.4655 298.498C81.6356 297.897 82.9717 297.597 84.4738 297.597C85.9759 297.597 87.2725 297.937 88.3635 298.617C89.4703 299.281 90.3241 300.222 90.925 301.439C91.5258 302.657 91.8263 304.088 91.8263 305.732H79.1848V303.384H90.2846L88.743 304.261C88.6955 303.376 88.4821 302.617 88.1026 301.985C87.7389 301.352 87.2409 300.87 86.6084 300.538C85.9917 300.19 85.2565 300.016 84.4026 300.016C83.5014 300.016 82.7108 300.198 82.0309 300.561C81.3668 300.925 80.845 301.439 80.4655 302.103C80.086 302.751 79.8963 303.526 79.8963 304.427C79.8963 305.424 80.1177 306.285 80.5604 307.013C81.0189 307.74 81.6593 308.301 82.4815 308.697C83.3195 309.076 84.3078 309.266 85.4462 309.266C86.474 309.266 87.5255 309.108 88.6007 308.792C89.6759 308.459 90.6246 308.001 91.4468 307.416V309.645C90.6246 310.278 89.6205 310.776 88.4346 311.14C87.2646 311.503 86.0708 311.685 84.8533 311.685ZM93.2721 297.929H96.3554L97.1618 302.767V311.353H94.0785V302.317L93.2721 297.929ZM102.498 297.597C103.763 297.597 104.838 297.85 105.724 298.356C106.609 298.862 107.281 299.589 107.74 300.538C108.214 301.471 108.451 302.601 108.451 303.929V311.353H105.368V304.427C105.368 303.02 105.036 301.961 104.372 301.249C103.724 300.522 102.767 300.158 101.502 300.158C100.632 300.158 99.8656 300.356 99.2015 300.751C98.5532 301.131 98.0473 301.668 97.6836 302.364C97.3357 303.06 97.1618 303.874 97.1618 304.807L96.0708 304.214C96.2131 302.823 96.5768 301.637 97.1618 300.656C97.7468 299.676 98.4979 298.925 99.415 298.403C100.332 297.866 101.36 297.597 102.498 297.597ZM116.709 311.685C115.476 311.685 114.424 311.432 113.555 310.926C112.701 310.42 112.045 309.693 111.586 308.744C111.127 307.795 110.898 306.665 110.898 305.352V297.929H113.982V304.878C113.982 306.27 114.298 307.329 114.93 308.056C115.579 308.768 116.503 309.124 117.705 309.124C118.575 309.124 119.318 308.934 119.935 308.554C120.567 308.175 121.057 307.637 121.405 306.942C121.753 306.23 121.927 305.408 121.927 304.475L122.994 305.068C122.868 306.443 122.52 307.629 121.951 308.625C121.381 309.606 120.646 310.365 119.745 310.902C118.844 311.424 117.832 311.685 116.709 311.685ZM122.71 311.353L121.927 306.515V297.929H125.01V306.989L125.793 311.353H122.71ZM135.337 311.685C133.772 311.685 132.381 311.393 131.163 310.808C129.946 310.207 128.989 309.377 128.293 308.317C127.598 307.258 127.25 306.024 127.25 304.617C127.25 303.226 127.574 302.008 128.222 300.965C128.886 299.905 129.795 299.083 130.95 298.498C132.12 297.897 133.456 297.597 134.958 297.597C136.46 297.597 137.757 297.937 138.848 298.617C139.954 299.281 140.808 300.222 141.409 301.439C142.01 302.657 142.31 304.088 142.31 305.732H129.669V303.384H140.769L139.227 304.261C139.18 303.376 138.966 302.617 138.587 301.985C138.223 301.352 137.725 300.87 137.093 300.538C136.476 300.19 135.741 300.016 134.887 300.016C133.985 300.016 133.195 300.198 132.515 300.561C131.851 300.925 131.329 301.439 130.95 302.103C130.57 302.751 130.38 303.526 130.38 304.427C130.38 305.424 130.602 306.285 131.045 307.013C131.503 307.74 132.143 308.301 132.966 308.697C133.804 309.076 134.792 309.266 135.93 309.266C136.958 309.266 138.01 309.108 139.085 308.792C140.16 308.459 141.109 308.001 141.931 307.416V309.645C141.109 310.278 140.105 310.776 138.919 311.14C137.749 311.503 136.555 311.685 135.337 311.685ZM162.414 308.056V305.685L162.532 305.258V302.672L162.414 302.198V297.929H165.497V307.772C165.497 309.495 165.133 310.934 164.406 312.088C163.679 313.258 162.682 314.136 161.418 314.721C160.153 315.306 158.698 315.598 157.054 315.598C155.852 315.598 154.745 315.44 153.733 315.124C152.721 314.808 151.741 314.326 150.792 313.677V311.116C151.757 311.875 152.753 312.405 153.78 312.705C154.808 313.021 155.836 313.179 156.864 313.179C158.666 313.179 160.042 312.737 160.991 311.851C161.939 310.966 162.414 309.701 162.414 308.056ZM155.962 310.309C154.729 310.309 153.622 310.049 152.642 309.527C151.662 308.989 150.887 308.246 150.318 307.297C149.748 306.349 149.464 305.234 149.464 303.953C149.464 302.672 149.748 301.558 150.318 300.609C150.887 299.66 151.662 298.925 152.642 298.403C153.622 297.866 154.729 297.597 155.962 297.597C156.88 297.597 157.726 297.739 158.5 298.024C159.291 298.308 159.994 298.688 160.611 299.162C161.244 299.621 161.773 300.135 162.2 300.704C162.643 301.257 162.983 301.826 163.22 302.411C163.457 302.981 163.576 303.502 163.576 303.977C163.576 304.593 163.394 305.273 163.03 306.017C162.667 306.744 162.145 307.432 161.465 308.08C160.801 308.728 160.002 309.266 159.07 309.693C158.137 310.104 157.101 310.309 155.962 310.309ZM156.911 308.033C158.034 308.033 159.062 307.708 159.994 307.06C160.943 306.412 161.789 305.376 162.532 303.953C161.789 302.498 160.943 301.455 159.994 300.822C159.062 300.174 158.034 299.85 156.911 299.85C155.994 299.85 155.211 300.024 154.563 300.372C153.915 300.72 153.417 301.202 153.069 301.819C152.737 302.435 152.571 303.147 152.571 303.953C152.571 304.744 152.737 305.447 153.069 306.064C153.417 306.681 153.915 307.163 154.563 307.511C155.211 307.859 155.994 308.033 156.911 308.033ZM167.615 297.929H170.698L171.505 302.815V311.353H168.421V302.222L167.615 297.929ZM178.312 297.834V300.538C177.964 300.443 177.584 300.372 177.173 300.324C176.762 300.277 176.375 300.253 176.011 300.253C175.141 300.253 174.367 300.443 173.687 300.822C173.007 301.202 172.469 301.771 172.074 302.53C171.694 303.273 171.505 304.19 171.505 305.281L170.793 304.404C170.856 303.455 171.014 302.57 171.267 301.747C171.536 300.909 171.9 300.182 172.358 299.565C172.833 298.949 173.41 298.466 174.09 298.119C174.77 297.771 175.56 297.597 176.462 297.597C176.778 297.597 177.102 297.621 177.434 297.668C177.766 297.7 178.059 297.755 178.312 297.834ZM186.693 311.685C185.065 311.685 183.634 311.393 182.4 310.808C181.183 310.207 180.226 309.377 179.531 308.317C178.851 307.258 178.511 306.032 178.511 304.641C178.511 303.234 178.851 302.008 179.531 300.965C180.226 299.905 181.183 299.083 182.4 298.498C183.634 297.897 185.065 297.597 186.693 297.597C188.322 297.597 189.745 297.897 190.963 298.498C192.196 299.083 193.152 299.905 193.832 300.965C194.528 302.008 194.876 303.234 194.876 304.641C194.876 306.032 194.528 307.258 193.832 308.317C193.152 309.377 192.196 310.207 190.963 310.808C189.745 311.393 188.322 311.685 186.693 311.685ZM186.693 309.266C187.737 309.266 188.63 309.076 189.373 308.697C190.132 308.317 190.717 307.787 191.129 307.108C191.54 306.412 191.745 305.59 191.745 304.641C191.745 303.692 191.54 302.878 191.129 302.198C190.717 301.502 190.132 300.965 189.373 300.585C188.63 300.206 187.737 300.016 186.693 300.016C185.666 300.016 184.772 300.206 184.013 300.585C183.254 300.965 182.669 301.502 182.258 302.198C181.847 302.878 181.641 303.692 181.641 304.641C181.641 305.59 181.847 306.412 182.258 307.108C182.669 307.787 183.254 308.317 184.013 308.697C184.772 309.076 185.666 309.266 186.693 309.266ZM213.903 309.764H212.812L217.437 297.929H220.52L215.113 311.353H211.958L207.215 299.328H208.424L203.562 311.353H200.408L195.024 297.929H198.155L202.803 309.764H201.641L206.29 297.929H209.373L213.903 309.764ZM220.464 300.301V298.901L223.334 298.166L224.615 294.419H226.417V297.929H232.655V300.301H226.417V306.111C226.417 307.234 226.654 308.025 227.129 308.483C227.619 308.926 228.41 309.147 229.501 309.147C230.196 309.147 230.813 309.076 231.351 308.934C231.888 308.776 232.402 308.554 232.892 308.27V310.808C232.481 311.013 231.896 311.211 231.137 311.4C230.394 311.59 229.627 311.685 228.836 311.685C227.524 311.685 226.465 311.472 225.658 311.045C224.852 310.602 224.259 310.001 223.879 309.242C223.516 308.467 223.334 307.582 223.334 306.586V300.301H220.464ZM234.687 293.09H237.771V311.353H234.687V293.09ZM243.107 297.597C244.372 297.597 245.447 297.85 246.333 298.356C247.218 298.862 247.89 299.589 248.349 300.538C248.823 301.471 249.06 302.601 249.06 303.929V311.353H245.977V304.427C245.977 303.02 245.645 301.961 244.981 301.249C244.332 300.522 243.376 300.158 242.111 300.158C241.241 300.158 240.474 300.356 239.81 300.751C239.162 301.131 238.656 301.668 238.292 302.364C237.945 303.06 237.771 303.874 237.771 304.807L236.68 304.214C236.822 302.823 237.186 301.637 237.771 300.656C238.356 299.676 239.107 298.925 240.024 298.403C240.941 297.866 241.969 297.597 243.107 297.597Z" fill="#212121"/>
<path d="M27.4688 390.044C27.4688 383.217 33.0031 377.683 39.8301 377.683C46.657 377.683 52.1914 383.217 52.1914 390.044V433.839C52.1914 440.666 46.657 446.2 39.8301 446.2C33.0031 446.2 27.4688 440.666 27.4688 433.839V390.044Z" fill="#69A042"/>
<path opacity="0.5" d="M74.168 353.15C74.168 346.323 79.7023 340.789 86.5293 340.789C93.3563 340.789 98.8906 346.323 98.8906 353.15V433.839C98.8906 440.666 93.3563 446.2 86.5293 446.2C79.7023 446.2 74.168 440.666 74.168 433.839V353.15Z" fill="#69A042"/>
<path d="M120.865 404.538C120.865 397.711 126.4 392.177 133.227 392.177C140.054 392.177 145.588 397.711 145.588 404.538V433.839C145.588 440.666 140.054 446.2 133.227 446.2C126.4 446.2 120.865 440.666 120.865 433.839V404.538Z" fill="#69A042"/>
<path opacity="0.5" d="M167.564 379.503C167.564 372.676 173.099 367.142 179.926 367.142C186.753 367.142 192.287 372.676 192.287 379.503V433.839C192.287 440.666 186.753 446.2 179.926 446.2C173.099 446.2 167.564 440.666 167.564 433.839V379.503Z" fill="#69A042"/>
<path d="M214.264 426.938C214.264 420.111 219.798 414.577 226.625 414.577C233.452 414.577 238.986 420.111 238.986 426.938V433.839C238.986 440.666 233.452 446.2 226.625 446.2C219.798 446.2 214.264 440.666 214.264 433.839V426.938Z" fill="#69A042"/>
<path opacity="0.5" d="M260.959 367.644C260.959 360.817 266.493 355.283 273.32 355.283C280.147 355.283 285.682 360.817 285.682 367.644V433.839C285.682 440.666 280.147 446.2 273.32 446.2C266.493 446.2 260.959 440.666 260.959 433.839V367.644Z" fill="#69A042"/>
<path d="M278.828 648.381L269.494 670.805L254.277 662.724L263.563 640.726L278.828 648.381Z" fill="#FCC9A7"/>
<path d="M274.622 669.482C274.622 668.135 273.464 667.261 272.306 667.757C270.038 668.726 266.304 669.553 261.839 667.545C257.207 665.465 256.357 662.039 256.333 659.794C256.333 658.613 255.482 657.715 254.419 657.881L220.464 662.772C218.409 663.079 216.471 664.26 215.101 666.103C213.801 667.828 214.416 670.333 216.235 670.9L266.919 686.306C268.904 686.92 271.077 685.479 271.668 683.163L274.527 671.822C274.575 671.632 274.598 671.443 274.598 671.254L274.622 669.482Z" fill="black"/>
<path d="M416.423 593.988L437.689 605.708L428.024 619.956L407.16 608.331L416.423 593.988Z" fill="#FCC9A7"/>
<path d="M436.932 600.462C435.585 600.32 434.593 601.384 434.947 602.565C435.656 604.904 436.082 608.732 433.601 612.938C431.025 617.309 427.528 617.806 425.283 617.546C424.102 617.427 423.133 618.16 423.157 619.223L424.314 653.509C424.385 655.588 425.354 657.644 427.032 659.203C428.591 660.668 431.167 660.361 431.923 658.589L452.74 609.89C453.567 607.976 452.362 605.66 450.141 604.833L439.177 600.746C438.988 600.675 438.799 600.627 438.61 600.604L436.932 600.462Z" fill="black"/>
<path d="M290.076 431.752L298.275 484.35L339.72 558.852L411.079 620.901L427.714 591.483L371.123 538.697L337.925 432.65L290.076 431.752Z" fill="black"/>
<path d="M357.418 428.751C357.418 428.751 365.665 444.346 352.858 469.251L313.091 545.147L282.775 660.172L252.672 649.657L274.292 533.333L312.618 442.551L290.076 431.752L357.418 428.751Z" fill="black"/>
<path d="M270.723 280.764C275.968 286.506 284.877 286.908 290.595 281.686C296.336 276.44 296.738 267.532 291.516 261.79C286.271 256.048 277.386 255.647 271.621 260.869C265.879 266.138 265.477 275.022 270.723 280.764Z" fill="#FCC9A7"/>
<path d="M259.479 287.995L271.718 273.251L281.477 283.057L269.993 297.116L259.479 287.995Z" fill="#FCC9A7"/>
<path d="M287.101 253.473L275.878 268.501C274.413 270.462 274.46 273.179 275.996 275.07L285.093 286.293C287.22 288.916 291.189 288.94 293.339 286.364L306.028 271.265C307.777 269.186 307.682 266.114 305.815 264.13L295.253 252.977C292.985 250.59 289.086 250.803 287.101 253.473Z" fill="#1C2226"/>
<path d="M298.702 306.448L254.209 328.777L278.641 291.089L262.526 277.148L211.582 346.948C206.951 352.95 208.747 361.692 215.387 365.355C218.766 367.222 222.83 367.411 226.374 365.851L292.346 339.647L298.702 306.448Z" fill="#D92120"/>
<path d="M282.775 327.88C282.775 327.88 290.644 389.575 290.077 431.753C290.077 431.753 313.682 442.149 363.728 426.956L351.346 312.238L327.245 304.133L298.701 306.449L282.775 327.88Z" fill="#D92120"/>
<path d="M306.779 300.447L307.393 304.464C307.441 304.747 307.346 305.055 307.133 305.267L300.966 311.812C300.399 312.403 299.407 312.072 299.312 311.269L298.674 306.449C298.627 306.142 298.745 305.834 298.982 305.622L305.149 299.88C305.739 299.36 306.684 299.667 306.779 300.447Z" fill="#FCF3F0"/>
<path d="M315.029 310.82C322.354 310.23 327.812 303.779 327.222 296.454L325.449 274.999L298.891 277.173L304.373 306.827C305.247 310.608 307.681 311.411 315.029 310.82Z" fill="#FCC9A7"/>
<path d="M326.346 282.513C326.346 282.513 320.627 298.77 309.026 296.761C298.369 294.918 298.889 277.173 298.889 277.173L326.346 282.513Z" fill="#F4BE9A"/>
<path d="M310.868 290.854L313.231 290.594C324.999 289.318 333.528 278.732 332.253 266.965L330.811 253.544C329.535 241.777 318.949 233.247 307.182 234.523L304.819 234.783C293.052 236.059 284.522 246.645 285.798 258.412L287.24 271.833C288.516 283.624 299.101 292.13 310.868 290.854Z" fill="#FCC9A7"/>
<path d="M310.868 290.854L313.231 290.594C324.999 289.318 333.528 278.732 332.253 266.965L330.811 253.544C329.535 241.776 318.949 233.246 307.182 234.522L304.819 234.782C293.052 236.058 284.522 246.644 285.798 258.411L287.24 271.832C288.516 283.623 299.101 292.129 310.868 290.854Z" fill="#FCC9A7"/>
<path d="M331.779 262.712C330.172 262.547 323.438 267.651 321.69 265.429C319.28 262.358 317.082 256.758 320.201 250.945C320.721 249.976 320.863 248.842 320.532 247.779C319.918 245.865 318.264 243.644 313.703 245.25C306.402 247.826 289.98 256.096 285.23 244.258C279.229 229.348 326.439 233.507 326.439 233.507L337.19 249.055L332.583 271.218L331.779 262.712Z" fill="#1C2226"/>
<path d="M325.212 264.957C325.661 269.163 329.442 272.211 333.648 271.738C337.854 271.289 340.902 267.509 340.429 263.303C339.98 259.097 336.2 256.049 331.994 256.521C327.788 256.994 324.763 260.751 325.212 264.957Z" fill="#FCC9A7"/>
<path d="M312.618 315.381L318.643 408.266L307.419 418.805L300.756 408.597L307.419 313.538L312.618 315.381Z" fill="#0C2C40"/>
<path d="M303.639 308.978L304.56 307.702L304.324 306.591H317.603L318.643 310.065L309.806 317.862L303.639 308.978Z" fill="#0C2C40"/>
<path d="M326.371 295.202L313.8 303.756C312.383 304.725 312.193 306.757 313.422 307.962L323.299 317.673C324.41 318.76 326.229 318.713 327.269 317.531L337.216 306.355C338.185 305.268 338.138 303.59 337.098 302.574L329.821 295.462C328.899 294.588 327.458 294.47 326.371 295.202Z" fill="#FCF3F0"/>
<path d="M273.113 299.619L254.305 288.277" stroke="#EADDD8" stroke-width="1.79555" stroke-miterlimit="10" stroke-linecap="round" stroke-linejoin="round"/>
<path d="M307.373 388.701L300.781 459.186C300.521 461.832 302.34 464.242 304.963 464.762L385.797 480.215C388.774 480.783 391.586 478.703 391.917 475.702L399.313 408.715C399.596 406.115 397.895 403.705 395.343 403.091L313.706 384.164C310.657 383.432 307.68 385.582 307.373 388.701Z" fill="#AFAFAF"/>
<path d="M313.115 389.953L306.523 460.438C306.287 463.085 308.082 465.495 310.705 466.015L391.539 481.468C394.517 482.035 397.328 479.956 397.659 476.955L405.055 409.967C405.339 407.368 403.637 404.958 401.085 404.343L319.448 385.393C316.376 384.684 313.399 386.834 313.115 389.953Z" fill="#D1D1D1"/>
<path d="M343.62 454.815C337.122 448.86 327.009 449.309 321.054 455.807C315.1 462.305 315.549 472.418 322.047 478.373C328.545 484.327 338.658 483.878 344.612 477.38C350.567 470.859 350.118 460.769 343.62 454.815Z" fill="#FCC9A7"/>
<path d="M355.603 445.505L343.269 463.416L331.266 453.302L342.797 436.266L355.603 445.505Z" fill="#FCC9A7"/>
<path d="M351.37 312.238C351.37 312.238 369.446 314.057 374.692 343.617L395.485 386.81C396.052 388.701 396.43 390.638 396.619 392.576L352.882 455.405L333.152 443.709L368.525 386.999L347.046 352.998L351.37 312.238Z" fill="#D92120"/>
<path d="M339.582 435.226L359.501 445.906" stroke="#EADDD8" stroke-width="1.79555" stroke-miterlimit="10" stroke-linecap="round" stroke-linejoin="round"/>
<path d="M357.56 369.656L344.824 347.492" stroke="#CD0D0C" stroke-width="1.79555" stroke-miterlimit="10" stroke-linecap="round" stroke-linejoin="round"/>
<path d="M290.103 249.527C281.077 245.439 282.967 234.9 285.023 231.569C285.023 231.569 285.424 237.5 289.465 236.129C289.465 236.129 288.921 227.292 300.759 225C300.759 225 296.388 232.939 311.959 231.427C331.075 229.56 332.186 241.658 331.122 256.686L325.263 252.48L320.726 242.013H305.249L290.103 249.527Z" fill="#1C2226"/>
<g filter="url(#filter3_d_106_21988)">
<rect x="356" y="234" width="242.128" height="95.7635" rx="17.9557" fill="white"/>
<path d="M405.839 263.412C401.41 262.471 396.797 262.956 392.661 264.797C388.525 266.639 385.078 269.743 382.814 273.664C380.55 277.585 379.586 282.122 380.059 286.624C380.532 291.127 382.419 295.365 385.448 298.729C388.478 302.094 392.495 304.413 396.923 305.355C401.352 306.296 405.965 305.811 410.101 303.969C414.237 302.128 417.684 299.024 419.948 295.103C422.212 291.182 423.176 286.645 422.703 282.142L401.381 284.383L405.839 263.412Z" fill="#69A042"/>
<path d="M410.076 258.522C414.782 259.603 419.026 262.147 422.198 265.788C425.371 269.43 427.309 273.982 427.735 278.793L404.955 280.81L410.076 258.522Z" fill="#D92120"/>
<path d="M452.058 262.21H454.002V274.527L445.439 266.064V273.941H443.495V261.623L452.058 270.086V262.21ZM458.313 270.924C458.313 271.472 458.43 271.896 458.665 272.198C458.9 272.5 459.257 272.651 459.738 272.651C460.084 272.651 460.386 272.583 460.643 272.449C460.9 272.304 461.101 272.103 461.246 271.846C461.391 271.578 461.464 271.271 461.464 270.924V266.232H463.274V273.941H461.464V272.751C461.218 273.198 460.9 273.539 460.508 273.773C460.129 273.997 459.671 274.109 459.134 274.109C458.274 274.109 457.609 273.84 457.14 273.304C456.682 272.768 456.453 272.042 456.453 271.125V266.232H458.313V270.924ZM476.612 269.047V273.941H474.802V269.249C474.802 268.668 474.696 268.237 474.484 267.958C474.283 267.668 473.959 267.522 473.512 267.522C473.21 267.522 472.942 267.589 472.707 267.723C472.484 267.858 472.305 268.053 472.171 268.31C472.048 268.567 471.987 268.88 471.987 269.249V273.941H470.177V269.249C470.177 268.668 470.071 268.237 469.858 267.958C469.657 267.668 469.333 267.522 468.886 267.522C468.574 267.522 468.3 267.589 468.065 267.723C467.842 267.858 467.669 268.053 467.546 268.31C467.423 268.567 467.361 268.88 467.361 269.249V273.941H465.585V266.232H467.361V267.355C467.585 266.93 467.875 266.612 468.233 266.4C468.602 266.176 469.032 266.064 469.523 266.064C470.093 266.064 470.562 266.182 470.931 266.416C471.311 266.651 471.585 266.992 471.752 267.439C472.02 266.992 472.356 266.651 472.758 266.416C473.171 266.182 473.64 266.064 474.165 266.064C474.713 266.064 475.165 266.182 475.523 266.416C475.892 266.64 476.165 266.975 476.344 267.422C476.523 267.869 476.612 268.411 476.612 269.047ZM480.683 260.869V273.941H478.856V260.869H480.683ZM487.068 270.086C487.068 270.924 486.895 271.645 486.548 272.248C486.202 272.852 485.744 273.315 485.174 273.639C484.604 273.952 483.984 274.109 483.314 274.109C482.677 274.109 482.107 273.947 481.605 273.623C481.113 273.299 480.728 272.835 480.448 272.232C480.169 271.628 480.029 270.913 480.029 270.086C480.029 269.249 480.169 268.533 480.448 267.941C480.728 267.338 481.113 266.874 481.605 266.55C482.107 266.226 482.677 266.064 483.314 266.064C483.984 266.064 484.604 266.226 485.174 266.55C485.744 266.863 486.202 267.321 486.548 267.925C486.895 268.517 487.068 269.237 487.068 270.086ZM485.191 270.086C485.191 269.573 485.085 269.131 484.872 268.763C484.66 268.394 484.375 268.115 484.018 267.925C483.671 267.735 483.286 267.64 482.861 267.64C482.515 267.64 482.174 267.735 481.839 267.925C481.504 268.115 481.225 268.394 481.001 268.763C480.789 269.12 480.683 269.561 480.683 270.086C480.683 270.612 480.789 271.058 481.001 271.427C481.225 271.785 481.504 272.058 481.839 272.248C482.174 272.438 482.515 272.533 482.861 272.533C483.286 272.533 483.671 272.438 484.018 272.248C484.375 272.058 484.66 271.779 484.872 271.41C485.085 271.042 485.191 270.6 485.191 270.086ZM492.144 274.109C491.361 274.109 490.669 273.941 490.065 273.606C489.473 273.271 489.015 272.801 488.691 272.198C488.367 271.595 488.205 270.891 488.205 270.086C488.205 269.271 488.367 268.561 488.691 267.958C489.026 267.355 489.496 266.891 490.099 266.567C490.702 266.232 491.412 266.064 492.227 266.064C493.043 266.064 493.736 266.221 494.305 266.534C494.875 266.846 495.311 267.299 495.613 267.891C495.925 268.472 496.082 269.176 496.082 270.003C496.082 270.092 496.076 270.187 496.065 270.288C496.065 270.388 496.059 270.461 496.048 270.505H489.278V269.265H494.506L493.953 270.036C493.987 269.969 494.02 269.88 494.054 269.768C494.099 269.645 494.121 269.545 494.121 269.466C494.121 269.053 494.037 268.695 493.87 268.394C493.713 268.092 493.49 267.858 493.199 267.69C492.92 267.522 492.59 267.439 492.211 267.439C491.752 267.439 491.361 267.539 491.037 267.74C490.713 267.941 490.468 268.232 490.3 268.612C490.132 268.992 490.043 269.461 490.032 270.019C490.032 270.578 490.116 271.053 490.283 271.444C490.451 271.824 490.697 272.114 491.021 272.315C491.356 272.516 491.758 272.617 492.227 272.617C492.719 272.617 493.149 272.516 493.518 272.315C493.886 272.114 494.194 271.807 494.439 271.394L495.998 272.03C495.596 272.723 495.076 273.243 494.439 273.589C493.803 273.935 493.037 274.109 492.144 274.109ZM499.603 266.232V273.941H497.809V266.232H499.603ZM501.898 268.159C501.731 268.025 501.574 267.925 501.429 267.858C501.284 267.791 501.1 267.757 500.876 267.757C500.575 267.757 500.329 267.835 500.139 267.992C499.949 268.148 499.809 268.366 499.72 268.645C499.642 268.913 499.603 269.232 499.603 269.6L498.999 269.249C498.999 268.634 499.111 268.092 499.334 267.623C499.569 267.143 499.865 266.763 500.223 266.483C500.591 266.204 500.971 266.064 501.362 266.064C501.642 266.064 501.904 266.109 502.15 266.198C502.396 266.277 502.602 266.422 502.77 266.634L501.898 268.159ZM508.45 270.086C508.45 269.293 508.629 268.595 508.986 267.992C509.355 267.388 509.852 266.919 510.478 266.584C511.103 266.238 511.813 266.064 512.606 266.064C513.399 266.064 514.103 266.238 514.717 266.584C515.343 266.919 515.84 267.388 516.209 267.992C516.578 268.595 516.762 269.293 516.762 270.086C516.762 270.869 516.578 271.567 516.209 272.181C515.84 272.785 515.343 273.259 514.717 273.606C514.103 273.941 513.399 274.109 512.606 274.109C511.813 274.109 511.103 273.941 510.478 273.606C509.852 273.259 509.355 272.785 508.986 272.181C508.629 271.567 508.45 270.869 508.45 270.086ZM510.31 270.086C510.31 270.567 510.411 270.991 510.612 271.36C510.813 271.718 511.086 272.003 511.433 272.215C511.779 272.416 512.17 272.516 512.606 272.516C513.03 272.516 513.416 272.416 513.762 272.215C514.12 272.003 514.399 271.718 514.6 271.36C514.801 270.991 514.902 270.567 514.902 270.086C514.902 269.606 514.801 269.181 514.6 268.813C514.399 268.444 514.12 268.159 513.762 267.958C513.416 267.757 513.03 267.656 512.606 267.656C512.17 267.656 511.779 267.757 511.433 267.958C511.086 268.159 510.813 268.444 510.612 268.813C510.411 269.181 510.31 269.606 510.31 270.086ZM517.843 266.232H522.267V267.824H517.843V266.232ZM522.066 262.813C521.954 262.634 521.826 262.517 521.68 262.461C521.546 262.405 521.407 262.377 521.261 262.377C521.094 262.377 520.949 262.422 520.826 262.512C520.714 262.601 520.625 262.746 520.557 262.947C520.49 263.148 520.457 263.411 520.457 263.735V273.941H518.681V263.383C518.681 262.78 518.775 262.283 518.965 261.891C519.167 261.489 519.451 261.188 519.82 260.987C520.189 260.774 520.641 260.668 521.178 260.668C521.479 260.668 521.742 260.707 521.965 260.785C522.189 260.864 522.379 260.959 522.535 261.07C522.703 261.182 522.831 261.294 522.92 261.405L522.066 262.813ZM529.882 270.086C529.882 270.578 529.988 271.008 530.2 271.377C530.413 271.734 530.698 272.019 531.055 272.232C531.424 272.444 531.832 272.55 532.278 272.55C532.647 272.55 532.999 272.494 533.334 272.382C533.669 272.271 533.965 272.114 534.222 271.913C534.479 271.712 534.669 271.489 534.792 271.243V273.237C534.524 273.505 534.161 273.717 533.703 273.874C533.245 274.03 532.742 274.109 532.195 274.109C531.401 274.109 530.686 273.941 530.05 273.606C529.424 273.259 528.927 272.785 528.558 272.181C528.201 271.567 528.022 270.869 528.022 270.086C528.022 269.293 528.201 268.595 528.558 267.992C528.927 267.388 529.424 266.919 530.05 266.584C530.686 266.238 531.401 266.064 532.195 266.064C532.742 266.064 533.245 266.143 533.703 266.299C534.161 266.455 534.524 266.668 534.792 266.936V268.93C534.669 268.673 534.474 268.45 534.206 268.26C533.949 268.059 533.653 267.902 533.317 267.791C532.982 267.679 532.636 267.623 532.278 267.623C531.832 267.623 531.424 267.729 531.055 267.941C530.698 268.154 530.413 268.444 530.2 268.813C529.988 269.181 529.882 269.606 529.882 270.086ZM536.793 260.869H538.603V273.941H536.793V260.869ZM540.85 263.165C540.85 262.852 540.962 262.59 541.185 262.377C541.42 262.165 541.688 262.059 541.99 262.059C542.314 262.059 542.582 262.165 542.794 262.377C543.017 262.59 543.129 262.852 543.129 263.165C543.129 263.467 543.017 263.729 542.794 263.953C542.582 264.165 542.314 264.271 541.99 264.271C541.688 264.271 541.42 264.165 541.185 263.953C540.962 263.729 540.85 263.467 540.85 263.165ZM541.101 266.232H542.878V273.941H541.101V266.232ZM548.72 274.109C547.938 274.109 547.245 273.941 546.642 273.606C546.05 273.271 545.592 272.801 545.268 272.198C544.944 271.595 544.782 270.891 544.782 270.086C544.782 269.271 544.944 268.561 545.268 267.958C545.603 267.355 546.072 266.891 546.676 266.567C547.279 266.232 547.988 266.064 548.804 266.064C549.62 266.064 550.312 266.221 550.882 266.534C551.452 266.846 551.888 267.299 552.189 267.891C552.502 268.472 552.658 269.176 552.658 270.003C552.658 270.092 552.653 270.187 552.642 270.288C552.642 270.388 552.636 270.461 552.625 270.505H545.854V269.265H551.083L550.53 270.036C550.564 269.969 550.597 269.88 550.631 269.768C550.675 269.645 550.698 269.545 550.698 269.466C550.698 269.053 550.614 268.695 550.446 268.394C550.29 268.092 550.066 267.858 549.776 267.69C549.497 267.522 549.167 267.439 548.787 267.439C548.329 267.439 547.938 267.539 547.614 267.74C547.29 267.941 547.044 268.232 546.877 268.612C546.709 268.992 546.62 269.461 546.609 270.019C546.609 270.578 546.692 271.053 546.86 271.444C547.028 271.824 547.273 272.114 547.597 272.315C547.933 272.516 548.335 272.617 548.804 272.617C549.296 272.617 549.726 272.516 550.094 272.315C550.463 272.114 550.77 271.807 551.016 271.394L552.575 272.03C552.172 272.723 551.653 273.243 551.016 273.589C550.379 273.935 549.614 274.109 548.72 274.109ZM559.347 269.249C559.347 268.679 559.229 268.249 558.995 267.958C558.76 267.668 558.397 267.522 557.905 267.522C557.57 267.522 557.274 267.595 557.017 267.74C556.76 267.874 556.559 268.075 556.414 268.344C556.269 268.601 556.196 268.902 556.196 269.249V273.941H554.386V266.232H556.196V267.422C556.442 266.964 556.755 266.623 557.134 266.4C557.526 266.176 557.989 266.064 558.525 266.064C559.397 266.064 560.062 266.333 560.52 266.869C560.978 267.394 561.207 268.12 561.207 269.047V273.941H559.347V269.249ZM562.446 266.232H566.82V267.824H562.446V266.232ZM563.736 263.551H565.529V273.941H563.736V263.551ZM568.42 271.41C568.666 271.679 568.911 271.913 569.157 272.114C569.414 272.304 569.671 272.449 569.928 272.55C570.185 272.639 570.442 272.684 570.699 272.684C571.023 272.684 571.274 272.611 571.453 272.466C571.643 272.321 571.738 272.12 571.738 271.863C571.738 271.639 571.665 271.449 571.52 271.293C571.375 271.125 571.174 270.986 570.917 270.874C570.66 270.751 570.358 270.628 570.012 270.505C569.666 270.371 569.319 270.215 568.973 270.036C568.638 269.846 568.358 269.6 568.135 269.299C567.923 268.997 567.817 268.617 567.817 268.159C567.817 267.69 567.934 267.299 568.168 266.986C568.414 266.673 568.738 266.444 569.14 266.299C569.554 266.143 569.995 266.064 570.464 266.064C570.889 266.064 571.286 266.126 571.654 266.249C572.034 266.372 572.375 266.534 572.677 266.735C572.978 266.936 573.235 267.165 573.447 267.422L572.442 268.494C572.185 268.193 571.878 267.947 571.52 267.757C571.163 267.567 570.794 267.472 570.414 267.472C570.157 267.472 569.945 267.528 569.777 267.64C569.61 267.751 569.526 267.913 569.526 268.126C569.526 268.304 569.599 268.466 569.744 268.612C569.9 268.746 570.101 268.869 570.347 268.98C570.604 269.092 570.889 269.209 571.202 269.332C571.626 269.5 572.017 269.684 572.375 269.885C572.732 270.086 573.017 270.332 573.23 270.623C573.453 270.913 573.565 271.293 573.565 271.762C573.565 272.489 573.313 273.075 572.811 273.522C572.319 273.958 571.649 274.176 570.8 274.176C570.274 274.176 569.788 274.097 569.342 273.941C568.906 273.773 568.52 273.561 568.185 273.304C567.861 273.036 567.588 272.757 567.364 272.466L568.42 271.41Z" fill="black"/>
<path d="M443.444 290.096V288.219L448.12 287.163V299.079H446.159V289.342L443.444 290.096ZM451.533 298.224C451.533 297.9 451.644 297.626 451.868 297.403C452.102 297.168 452.382 297.051 452.706 297.051C453.052 297.051 453.337 297.168 453.56 297.403C453.784 297.626 453.896 297.9 453.896 298.224C453.896 298.537 453.784 298.81 453.56 299.045C453.337 299.28 453.052 299.397 452.706 299.397C452.382 299.397 452.102 299.28 451.868 299.045C451.644 298.81 451.533 298.537 451.533 298.224ZM457.911 293.213C457.911 293.839 457.972 294.414 458.095 294.939C458.218 295.464 458.391 295.917 458.615 296.297C458.849 296.677 459.129 296.973 459.453 297.185C459.777 297.386 460.134 297.487 460.525 297.487C460.939 297.487 461.302 297.386 461.615 297.185C461.939 296.973 462.212 296.677 462.436 296.297C462.67 295.917 462.849 295.464 462.972 294.939C463.095 294.414 463.156 293.839 463.156 293.213C463.156 292.587 463.095 292.012 462.972 291.487C462.849 290.962 462.67 290.509 462.436 290.13C462.212 289.75 461.939 289.459 461.615 289.258C461.302 289.046 460.939 288.94 460.525 288.94C460.134 288.94 459.777 289.046 459.453 289.258C459.129 289.459 458.849 289.75 458.615 290.13C458.391 290.509 458.218 290.962 458.095 291.487C457.972 292.012 457.911 292.587 457.911 293.213ZM455.967 293.213C455.967 291.995 456.157 290.934 456.537 290.029C456.928 289.124 457.464 288.42 458.146 287.917C458.838 287.415 459.631 287.163 460.525 287.163C461.441 287.163 462.24 287.415 462.922 287.917C463.614 288.42 464.151 289.124 464.531 290.029C464.91 290.934 465.1 291.995 465.1 293.213C465.1 294.431 464.91 295.492 464.531 296.397C464.151 297.302 463.614 298.006 462.922 298.509C462.24 299.012 461.441 299.263 460.525 299.263C459.631 299.263 458.838 299.012 458.146 298.509C457.464 298.006 456.928 297.302 456.537 296.397C456.157 295.492 455.967 294.431 455.967 293.213ZM468.385 293.213C468.385 293.839 468.446 294.414 468.569 294.939C468.692 295.464 468.865 295.917 469.089 296.297C469.324 296.677 469.603 296.973 469.927 297.185C470.251 297.386 470.608 297.487 470.999 297.487C471.413 297.487 471.776 297.386 472.089 297.185C472.413 296.973 472.686 296.677 472.91 296.297C473.144 295.917 473.323 295.464 473.446 294.939C473.569 294.414 473.63 293.839 473.63 293.213C473.63 292.587 473.569 292.012 473.446 291.487C473.323 290.962 473.144 290.509 472.91 290.13C472.686 289.75 472.413 289.459 472.089 289.258C471.776 289.046 471.413 288.94 470.999 288.94C470.608 288.94 470.251 289.046 469.927 289.258C469.603 289.459 469.324 289.75 469.089 290.13C468.865 290.509 468.692 290.962 468.569 291.487C468.446 292.012 468.385 292.587 468.385 293.213ZM466.441 293.213C466.441 291.995 466.631 290.934 467.011 290.029C467.402 289.124 467.938 288.42 468.62 287.917C469.312 287.415 470.106 287.163 470.999 287.163C471.916 287.163 472.714 287.415 473.396 287.917C474.089 288.42 474.625 289.124 475.005 290.029C475.385 290.934 475.574 291.995 475.574 293.213C475.574 294.431 475.385 295.492 475.005 296.397C474.625 297.302 474.089 298.006 473.396 298.509C472.714 299.012 471.916 299.263 470.999 299.263C470.106 299.263 469.312 299.012 468.62 298.509C467.938 298.006 467.402 297.302 467.011 296.397C466.631 295.492 466.441 294.431 466.441 293.213ZM478.859 293.213C478.859 293.839 478.921 294.414 479.044 294.939C479.166 295.464 479.34 295.917 479.563 296.297C479.798 296.677 480.077 296.973 480.401 297.185C480.725 297.386 481.082 297.487 481.474 297.487C481.887 297.487 482.25 297.386 482.563 297.185C482.887 296.973 483.161 296.677 483.384 296.297C483.619 295.917 483.797 295.464 483.92 294.939C484.043 294.414 484.105 293.839 484.105 293.213C484.105 292.587 484.043 292.012 483.92 291.487C483.797 290.962 483.619 290.509 483.384 290.13C483.161 289.75 482.887 289.459 482.563 289.258C482.25 289.046 481.887 288.94 481.474 288.94C481.082 288.94 480.725 289.046 480.401 289.258C480.077 289.459 479.798 289.75 479.563 290.13C479.34 290.509 479.166 290.962 479.044 291.487C478.921 292.012 478.859 292.587 478.859 293.213ZM476.915 293.213C476.915 291.995 477.105 290.934 477.485 290.029C477.876 289.124 478.412 288.42 479.094 287.917C479.786 287.415 480.58 287.163 481.474 287.163C482.39 287.163 483.188 287.415 483.87 287.917C484.563 288.42 485.099 289.124 485.479 290.029C485.859 290.934 486.049 291.995 486.049 293.213C486.049 294.431 485.859 295.492 485.479 296.397C485.099 297.302 484.563 298.006 483.87 298.509C483.188 299.012 482.39 299.263 481.474 299.263C480.58 299.263 479.786 299.012 479.094 298.509C478.412 298.006 477.876 297.302 477.485 296.397C477.105 295.492 476.915 294.431 476.915 293.213Z" fill="black"/>
</g>
<g filter="url(#filter4_d_106_21988)">
<rect x="347" y="516" width="246" height="176" rx="6" fill="white"/>
<path d="M371.16 546.48L370.2 555H367.76L369.68 540.3L375.42 549.8L381.18 540.3L383.1 555H380.66L379.68 546.48L375.42 553.7L371.16 546.48ZM386.576 552.14C386.576 552.447 386.649 552.713 386.796 552.94C386.943 553.153 387.143 553.313 387.396 553.42C387.663 553.527 387.963 553.58 388.296 553.58C388.723 553.58 389.109 553.493 389.456 553.32C389.816 553.147 390.103 552.893 390.316 552.56C390.543 552.213 390.656 551.813 390.656 551.36L390.976 552.56C390.976 553.147 390.803 553.64 390.456 554.04C390.123 554.427 389.696 554.72 389.176 554.92C388.669 555.107 388.149 555.2 387.616 555.2C387.043 555.2 386.509 555.087 386.016 554.86C385.523 554.633 385.129 554.3 384.836 553.86C384.543 553.42 384.396 552.887 384.396 552.26C384.396 551.367 384.709 550.66 385.336 550.14C385.963 549.607 386.849 549.34 387.996 549.34C388.609 549.34 389.136 549.407 389.576 549.54C390.029 549.673 390.403 549.833 390.696 550.02C390.989 550.193 391.196 550.353 391.316 550.5V551.6C390.903 551.307 390.463 551.093 389.996 550.96C389.529 550.827 389.036 550.76 388.516 550.76C388.063 550.76 387.696 550.82 387.416 550.94C387.136 551.047 386.923 551.2 386.776 551.4C386.643 551.6 386.576 551.847 386.576 552.14ZM385.896 548.2L385.016 546.68C385.429 546.427 385.963 546.18 386.616 545.94C387.283 545.7 388.043 545.58 388.896 545.58C389.656 545.58 390.323 545.693 390.896 545.92C391.483 546.147 391.943 546.473 392.276 546.9C392.609 547.313 392.776 547.827 392.776 548.44V555H390.656V548.86C390.656 548.567 390.603 548.327 390.496 548.14C390.403 547.953 390.269 547.8 390.096 547.68C389.923 547.56 389.716 547.473 389.476 547.42C389.236 547.367 388.976 547.34 388.696 547.34C388.269 547.34 387.863 547.393 387.476 547.5C387.103 547.593 386.776 547.713 386.496 547.86C386.229 547.993 386.029 548.107 385.896 548.2ZM397.434 545.8V555H395.294V545.8H397.434ZM400.174 548.1C399.974 547.94 399.787 547.82 399.614 547.74C399.441 547.66 399.221 547.62 398.954 547.62C398.594 547.62 398.301 547.713 398.074 547.9C397.847 548.087 397.681 548.347 397.574 548.68C397.481 549 397.434 549.38 397.434 549.82L396.714 549.4C396.714 548.667 396.847 548.02 397.114 547.46C397.394 546.887 397.747 546.433 398.174 546.1C398.614 545.767 399.067 545.6 399.534 545.6C399.867 545.6 400.181 545.653 400.474 545.76C400.767 545.853 401.014 546.027 401.214 546.28L400.174 548.1ZM402.616 539.4H404.736V555H402.616V539.4ZM408.116 545.8H410.756L406.796 549.6L411.156 555H408.536L404.136 549.6L408.116 545.8ZM416.306 555.2C415.372 555.2 414.546 555 413.826 554.6C413.119 554.2 412.572 553.64 412.186 552.92C411.799 552.2 411.606 551.36 411.606 550.4C411.606 549.427 411.799 548.58 412.186 547.86C412.586 547.14 413.146 546.587 413.866 546.2C414.586 545.8 415.432 545.6 416.406 545.6C417.379 545.6 418.206 545.787 418.886 546.16C419.566 546.533 420.086 547.073 420.446 547.78C420.819 548.473 421.006 549.313 421.006 550.3C421.006 550.407 420.999 550.52 420.986 550.64C420.986 550.76 420.979 550.847 420.966 550.9H412.886V549.42H419.126L418.466 550.34C418.506 550.26 418.546 550.153 418.586 550.02C418.639 549.873 418.666 549.753 418.666 549.66C418.666 549.167 418.566 548.74 418.366 548.38C418.179 548.02 417.912 547.74 417.566 547.54C417.232 547.34 416.839 547.24 416.386 547.24C415.839 547.24 415.372 547.36 414.986 547.6C414.599 547.84 414.306 548.187 414.106 548.64C413.906 549.093 413.799 549.653 413.786 550.32C413.786 550.987 413.886 551.553 414.086 552.02C414.286 552.473 414.579 552.82 414.966 553.06C415.366 553.3 415.846 553.42 416.406 553.42C416.992 553.42 417.506 553.3 417.946 553.06C418.386 552.82 418.752 552.453 419.046 551.96L420.906 552.72C420.426 553.547 419.806 554.167 419.046 554.58C418.286 554.993 417.372 555.2 416.306 555.2ZM421.788 545.8H427.008V547.7H421.788V545.8ZM423.328 542.6H425.468V555H423.328V542.6ZM428.417 542.14C428.417 541.767 428.551 541.453 428.817 541.2C429.097 540.947 429.417 540.82 429.777 540.82C430.164 540.82 430.484 540.947 430.737 541.2C431.004 541.453 431.137 541.767 431.137 542.14C431.137 542.5 431.004 542.813 430.737 543.08C430.484 543.333 430.164 543.46 429.777 543.46C429.417 543.46 429.097 543.333 428.817 543.08C428.551 542.813 428.417 542.5 428.417 542.14ZM428.717 545.8H430.837V555H428.717V545.8ZM439.73 549.4C439.73 548.72 439.59 548.207 439.31 547.86C439.03 547.513 438.596 547.34 438.01 547.34C437.61 547.34 437.256 547.427 436.95 547.6C436.643 547.76 436.403 548 436.23 548.32C436.056 548.627 435.97 548.987 435.97 549.4V555H433.81V545.8H435.97V547.22C436.263 546.673 436.636 546.267 437.09 546C437.556 545.733 438.11 545.6 438.75 545.6C439.79 545.6 440.583 545.92 441.13 546.56C441.676 547.187 441.95 548.053 441.95 549.16V555H439.73V549.4ZM444.188 555.62H446.328C446.341 556.033 446.455 556.407 446.668 556.74C446.895 557.073 447.201 557.333 447.588 557.52C447.975 557.707 448.421 557.8 448.928 557.8C449.381 557.8 449.815 557.693 450.228 557.48C450.641 557.267 450.975 556.94 451.228 556.5C451.495 556.06 451.628 555.493 451.628 554.8V545.8H453.748V554.8C453.748 555.907 453.521 556.82 453.068 557.54C452.628 558.26 452.048 558.793 451.328 559.14C450.608 559.5 449.828 559.68 448.988 559.68C447.988 559.68 447.135 559.507 446.428 559.16C445.721 558.827 445.175 558.353 444.788 557.74C444.415 557.127 444.215 556.42 444.188 555.62ZM444.008 550.36C444.008 549.333 444.215 548.473 444.628 547.78C445.041 547.073 445.588 546.533 446.268 546.16C446.961 545.787 447.701 545.6 448.488 545.6C449.261 545.6 449.935 545.793 450.508 546.18C451.095 546.553 451.555 547.093 451.888 547.8C452.235 548.507 452.408 549.36 452.408 550.36C452.408 551.347 452.235 552.193 451.888 552.9C451.555 553.607 451.095 554.153 450.508 554.54C449.935 554.913 449.261 555.1 448.488 555.1C447.701 555.1 446.961 554.913 446.268 554.54C445.588 554.167 445.041 553.627 444.628 552.92C444.215 552.213 444.008 551.36 444.008 550.36ZM446.248 550.36C446.248 550.973 446.375 551.493 446.628 551.92C446.881 552.347 447.215 552.673 447.628 552.9C448.055 553.113 448.515 553.22 449.008 553.22C449.421 553.22 449.828 553.113 450.228 552.9C450.641 552.687 450.975 552.367 451.228 551.94C451.495 551.5 451.628 550.973 451.628 550.36C451.628 549.88 451.548 549.467 451.388 549.12C451.241 548.76 451.041 548.46 450.788 548.22C450.535 547.967 450.248 547.78 449.928 547.66C449.621 547.54 449.315 547.48 449.008 547.48C448.515 547.48 448.055 547.593 447.628 547.82C447.215 548.033 446.881 548.353 446.628 548.78C446.375 549.207 446.248 549.733 446.248 550.36ZM461.903 555.62H464.043C464.056 556.033 464.17 556.407 464.383 556.74C464.61 557.073 464.916 557.333 465.303 557.52C465.69 557.707 466.136 557.8 466.643 557.8C467.096 557.8 467.53 557.693 467.943 557.48C468.356 557.267 468.69 556.94 468.943 556.5C469.21 556.06 469.343 555.493 469.343 554.8V545.8H471.463V554.8C471.463 555.907 471.236 556.82 470.783 557.54C470.343 558.26 469.763 558.793 469.043 559.14C468.323 559.5 467.543 559.68 466.703 559.68C465.703 559.68 464.85 559.507 464.143 559.16C463.436 558.827 462.89 558.353 462.503 557.74C462.13 557.127 461.93 556.42 461.903 555.62ZM461.723 550.36C461.723 549.333 461.93 548.473 462.343 547.78C462.756 547.073 463.303 546.533 463.983 546.16C464.676 545.787 465.416 545.6 466.203 545.6C466.976 545.6 467.65 545.793 468.223 546.18C468.81 546.553 469.27 547.093 469.603 547.8C469.95 548.507 470.123 549.36 470.123 550.36C470.123 551.347 469.95 552.193 469.603 552.9C469.27 553.607 468.81 554.153 468.223 554.54C467.65 554.913 466.976 555.1 466.203 555.1C465.416 555.1 464.676 554.913 463.983 554.54C463.303 554.167 462.756 553.627 462.343 552.92C461.93 552.213 461.723 551.36 461.723 550.36ZM463.963 550.36C463.963 550.973 464.09 551.493 464.343 551.92C464.596 552.347 464.93 552.673 465.343 552.9C465.77 553.113 466.23 553.22 466.723 553.22C467.136 553.22 467.543 553.113 467.943 552.9C468.356 552.687 468.69 552.367 468.943 551.94C469.21 551.5 469.343 550.973 469.343 550.36C469.343 549.88 469.263 549.467 469.103 549.12C468.956 548.76 468.756 548.46 468.503 548.22C468.25 547.967 467.963 547.78 467.643 547.66C467.336 547.54 467.03 547.48 466.723 547.48C466.23 547.48 465.77 547.593 465.343 547.82C464.93 548.033 464.596 548.353 464.343 548.78C464.09 549.207 463.963 549.733 463.963 550.36ZM476.282 545.8V555H474.142V545.8H476.282ZM479.022 548.1C478.822 547.94 478.635 547.82 478.462 547.74C478.288 547.66 478.068 547.62 477.802 547.62C477.442 547.62 477.148 547.713 476.922 547.9C476.695 548.087 476.528 548.347 476.422 548.68C476.328 549 476.282 549.38 476.282 549.82L475.562 549.4C475.562 548.667 475.695 548.02 475.962 547.46C476.242 546.887 476.595 546.433 477.022 546.1C477.462 545.767 477.915 545.6 478.382 545.6C478.715 545.6 479.028 545.653 479.322 545.76C479.615 545.853 479.862 546.027 480.062 546.28L479.022 548.1ZM480.551 550.4C480.551 549.453 480.764 548.62 481.191 547.9C481.631 547.18 482.224 546.62 482.971 546.22C483.718 545.807 484.564 545.6 485.511 545.6C486.458 545.6 487.298 545.807 488.031 546.22C488.778 546.62 489.371 547.18 489.811 547.9C490.251 548.62 490.471 549.453 490.471 550.4C490.471 551.333 490.251 552.167 489.811 552.9C489.371 553.62 488.778 554.187 488.031 554.6C487.298 555 486.458 555.2 485.511 555.2C484.564 555.2 483.718 555 482.971 554.6C482.224 554.187 481.631 553.62 481.191 552.9C480.764 552.167 480.551 551.333 480.551 550.4ZM482.771 550.4C482.771 550.973 482.891 551.48 483.131 551.92C483.371 552.347 483.698 552.687 484.111 552.94C484.524 553.18 484.991 553.3 485.511 553.3C486.018 553.3 486.478 553.18 486.891 552.94C487.318 552.687 487.651 552.347 487.891 551.92C488.131 551.48 488.251 550.973 488.251 550.4C488.251 549.827 488.131 549.32 487.891 548.88C487.651 548.44 487.318 548.1 486.891 547.86C486.478 547.62 486.018 547.5 485.511 547.5C484.991 547.5 484.524 547.62 484.111 547.86C483.698 548.1 483.371 548.44 483.131 548.88C482.891 549.32 482.771 549.827 482.771 550.4ZM490.848 545.8H493.188L495.348 551.28L497.888 545.1L500.588 551.3L502.748 545.8H505.088L500.788 555.66L497.908 549.44L495.148 555.66L490.848 545.8ZM505.186 545.8H510.406V547.7H505.186V545.8ZM506.726 542.6H508.866V555H506.726V542.6ZM514.056 539.4V555H511.896V539.4H514.056ZM517.816 549.4C517.816 548.72 517.676 548.207 517.396 547.86C517.129 547.513 516.696 547.34 516.096 547.34C515.696 547.34 515.342 547.427 515.036 547.6C514.729 547.773 514.489 548.013 514.316 548.32C514.142 548.627 514.056 548.987 514.056 549.4H513.536C513.536 548.667 513.669 548.013 513.936 547.44C514.202 546.867 514.576 546.407 515.056 546.06C515.549 545.713 516.142 545.54 516.836 545.54C517.516 545.54 518.089 545.673 518.556 545.94C519.036 546.207 519.396 546.607 519.636 547.14C519.876 547.66 519.996 548.313 519.996 549.1V555H517.816V549.4Z" fill="black"/>
<g clip-path="url(#clip1_106_21988)">
<path opacity="0.4" d="M395.692 644.22C385.077 644.22 375.385 649.963 367 672H602V571C591.819 571 582.154 589.664 571.344 589.664C561.385 589.664 558.544 601.241 554.462 601.241C550.769 601.241 548.923 598.757 546.154 598.757C543.385 598.757 543.385 611.678 537.846 611.678C534.154 611.678 530.462 607.849 524.462 607.849C518.462 607.849 514.736 618.378 509.692 618.378C496.308 618.378 502.308 596.842 493.538 596.842C486.154 596.842 484.769 609.764 476.462 609.764C465.846 609.764 468.615 592.057 461.692 592.057C452.923 592.057 458.002 622.206 443.692 622.206C432.154 622.206 431.438 631.715 425.231 631.778C419.024 631.841 412.769 626.053 407.231 626.053C398.923 626.053 404.923 644.22 395.692 644.22Z" fill="url(#paint0_linear_106_21988)"/>
<path d="M367 672C375.385 649.963 385.077 644.22 395.692 644.22C404.923 644.22 398.923 626.053 407.231 626.053C412.769 626.053 419.024 631.841 425.231 631.778C431.438 631.715 432.154 622.206 443.692 622.206C458.002 622.206 452.923 592.057 461.692 592.057C468.615 592.057 465.846 609.764 476.462 609.764C484.769 609.764 486.154 596.842 493.538 596.842C502.308 596.842 496.308 618.378 509.692 618.378C514.736 618.378 518.462 607.849 524.462 607.849C530.462 607.849 534.154 611.678 537.846 611.678C543.385 611.678 543.385 598.757 546.154 598.757C548.923 598.757 550.769 601.241 554.462 601.241C558.544 601.241 561.385 589.664 571.344 589.664C582.154 589.664 591.819 571 602 571" stroke="#69A042" stroke-width="2" stroke-linecap="round" stroke-linejoin="round"/>
<path d="M367 672C375.385 649.963 385.76 653.724 396.375 653.724C405.606 653.724 405.319 638.814 413.627 638.814C419.165 638.814 425.604 641.282 431.812 641.219C438.019 641.156 439.39 627.272 450.929 627.272C465.238 627.272 458.945 610.438 467.714 610.438C474.637 610.438 472.486 614.286 483.101 614.286C491.409 614.286 497.165 598.757 504.55 598.757C513.319 598.757 502.822 627.272 516.206 627.272C521.25 627.272 526.992 641.219 532.992 641.219C538.992 641.219 537.693 620.538 541.385 620.538C546.923 620.538 544.649 608.514 550.244 608.514C555.839 608.514 556.343 608.514 560.036 608.514C564.118 608.514 562.2 604.667 572.159 604.667C582.969 604.667 591.352 614.286 601.534 614.286" stroke="#69A042" stroke-opacity="0.3" stroke-width="2" stroke-linecap="round" stroke-linejoin="round"/>
</g>
</g>
</g>
<defs>
<filter id="filter0_d_106_21988" x="210.393" y="-129.238" width="854.775" height="854.774" filterUnits="userSpaceOnUse" color-interpolation-filters="sRGB">
<feFlood flood-opacity="0" result="BackgroundImageFix"/>
<feColorMatrix in="SourceAlpha" type="matrix" values="0 0 0 0 0 0 0 0 0 0 0 0 0 0 0 0 0 0 127 0" result="hardAlpha"/>
<feOffset dy="8.14775"/>
<feGaussianBlur stdDeviation="10"/>
<feComposite in2="hardAlpha" operator="out"/>
<feColorMatrix type="matrix" values="0 0 0 0 0.294118 0 0 0 0 0.596078 0 0 0 0 0.431373 0 0 0 0.15 0"/>
<feBlend mode="normal" in2="BackgroundImageFix" result="effect1_dropShadow_106_21988"/>
<feBlend mode="normal" in="SourceGraphic" in2="effect1_dropShadow_106_21988" result="shape"/>
</filter>
<filter id="filter1_d_106_21988" x="547" y="81.1477" width="651.08" height="651.081" filterUnits="userSpaceOnUse" color-interpolation-filters="sRGB">
<feFlood flood-opacity="0" result="BackgroundImageFix"/>
<feColorMatrix in="SourceAlpha" type="matrix" values="0 0 0 0 0 0 0 0 0 0 0 0 0 0 0 0 0 0 127 0" result="hardAlpha"/>
<feOffset dy="8.14775"/>
<feGaussianBlur stdDeviation="10"/>
<feComposite in2="hardAlpha" operator="out"/>
<feColorMatrix type="matrix" values="0 0 0 0 0.294118 0 0 0 0 0.596078 0 0 0 0 0.431373 0 0 0 0.15 0"/>
<feBlend mode="normal" in2="BackgroundImageFix" result="effect1_dropShadow_106_21988"/>
<feBlend mode="normal" in="SourceGraphic" in2="effect1_dropShadow_106_21988" result="shape"/>
</filter>
<filter id="filter2_d_106_21988" x="-50.0706" y="227.471" width="436.643" height="305.694" filterUnits="userSpaceOnUse" color-interpolation-filters="sRGB">
<feFlood flood-opacity="0" result="BackgroundImageFix"/>
<feColorMatrix in="SourceAlpha" type="matrix" values="0 0 0 0 0 0 0 0 0 0 0 0 0 0 0 0 0 0 127 0" result="hardAlpha"/>
<feMorphology radius="2.63529" operator="erode" in="SourceAlpha" result="effect1_dropShadow_106_21988"/>
<feOffset dy="10.5412"/>
<feGaussianBlur stdDeviation="26.3529"/>
<feColorMatrix type="matrix" values="0 0 0 0 0.0235294 0 0 0 0 0.0470588 0 0 0 0 0.231373 0 0 0 0.08 0"/>
<feBlend mode="normal" in2="BackgroundImageFix" result="effect1_dropShadow_106_21988"/>
<feBlend mode="normal" in="SourceGraphic" in2="effect1_dropShadow_106_21988" result="shape"/>
</filter>
<filter id="filter3_d_106_21988" x="310.512" y="198.089" width="333.104" height="186.739" filterUnits="userSpaceOnUse" color-interpolation-filters="sRGB">
<feFlood flood-opacity="0" result="BackgroundImageFix"/>
<feColorMatrix in="SourceAlpha" type="matrix" values="0 0 0 0 0 0 0 0 0 0 0 0 0 0 0 0 0 0 127 0" result="hardAlpha"/>
<feMorphology radius="2.39409" operator="erode" in="SourceAlpha" result="effect1_dropShadow_106_21988"/>
<feOffset dy="9.57635"/>
<feGaussianBlur stdDeviation="23.9409"/>
<feColorMatrix type="matrix" values="0 0 0 0 0.0235294 0 0 0 0 0.0470588 0 0 0 0 0.231373 0 0 0 0.08 0"/>
<feBlend mode="normal" in2="BackgroundImageFix" result="effect1_dropShadow_106_21988"/>
<feBlend mode="normal" in="SourceGraphic" in2="effect1_dropShadow_106_21988" result="shape"/>
</filter>
<filter id="filter4_d_106_21988" x="309" y="486" width="322" height="252" filterUnits="userSpaceOnUse" color-interpolation-filters="sRGB">
<feFlood flood-opacity="0" result="BackgroundImageFix"/>
<feColorMatrix in="SourceAlpha" type="matrix" values="0 0 0 0 0 0 0 0 0 0 0 0 0 0 0 0 0 0 127 0" result="hardAlpha"/>
<feMorphology radius="2" operator="erode" in="SourceAlpha" result="effect1_dropShadow_106_21988"/>
<feOffset dy="8"/>
<feGaussianBlur stdDeviation="20"/>
<feColorMatrix type="matrix" values="0 0 0 0 0.0235294 0 0 0 0 0.0470588 0 0 0 0 0.231373 0 0 0 0.08 0"/>
<feBlend mode="normal" in2="BackgroundImageFix" result="effect1_dropShadow_106_21988"/>
<feBlend mode="normal" in="SourceGraphic" in2="effect1_dropShadow_106_21988" result="shape"/>
</filter>
<linearGradient id="paint0_linear_106_21988" x1="484.5" y1="541.181" x2="484.5" y2="672" gradientUnits="userSpaceOnUse">
<stop stop-color="#69A042"/>
<stop offset="1" stop-color="#4B986E" stop-opacity="0"/>
</linearGradient>
<clipPath id="clip0_106_21988">
<rect width="704" height="749" fill="white"/>
</clipPath>
<clipPath id="clip1_106_21988">
<rect width="226" height="101" fill="white" transform="translate(367 571)"/>
</clipPath>
</defs>
</svg>
