<svg width="100" height="101" viewBox="0 0 100 101" fill="none" xmlns="http://www.w3.org/2000/svg">
<path d="M50 63C56.9036 63 62.5 57.4036 62.5 50.5C62.5 43.5964 56.9036 38 50 38C43.0964 38 37.5 43.5964 37.5 50.5C37.5 57.4036 43.0964 63 50 63Z" stroke="#212121" stroke-width="2" stroke-linecap="round" stroke-linejoin="round"/>
<path d="M30.1126 70.3874C27.4981 67.7774 25.4239 64.6774 24.0086 61.2649C22.5934 57.8524 21.865 54.1944 21.865 50.5C21.865 46.8057 22.5934 43.1477 24.0086 39.7352C25.4239 36.3227 27.4981 33.2227 30.1126 30.6127" stroke="black" stroke-width="2" stroke-linecap="round" stroke-linejoin="round"/>
<path d="M69.8875 30.6127C72.502 33.2227 74.5762 36.3227 75.9914 39.7352C77.4066 43.1477 78.135 46.8057 78.135 50.5C78.135 54.1944 77.4066 57.8524 75.9914 61.2649C74.5762 64.6774 72.502 67.7774 69.8875 70.3874" stroke="black" stroke-width="2" stroke-linecap="round" stroke-linejoin="round"/>
<path d="M19.0642 81.4359C14.9972 77.3759 11.7706 72.5537 9.5692 67.2454C7.36776 61.937 6.23462 56.2467 6.23462 50.5C6.23462 44.7533 7.36776 39.063 9.5692 33.7546C11.7706 28.4463 14.9972 23.6242 19.0642 19.5641" stroke="black" stroke-width="2" stroke-linecap="round" stroke-linejoin="round"/>
<path d="M80.936 19.5641C85.003 23.6242 88.2296 28.4463 90.431 33.7546C92.6325 39.063 93.7656 44.7533 93.7656 50.5C93.7656 56.2467 92.6325 61.937 90.431 67.2454C88.2296 72.5537 85.003 77.3759 80.936 81.4359" stroke="black" stroke-width="2" stroke-linecap="round" stroke-linejoin="round"/>
</svg>
