<svg width="100" height="101" viewBox="0 0 100 101" fill="none" xmlns="http://www.w3.org/2000/svg">
<path d="M68.8152 39.4515H87.5652V20.7015" stroke="#212121" stroke-width="2" stroke-linecap="round" stroke-linejoin="round"/>
<path d="M25.6931 26.1932C28.8851 23.0012 32.6746 20.4691 36.8452 18.7416C41.0157 17.0141 45.4857 16.125 49.9999 16.125C54.5141 16.125 58.9841 17.0141 63.1547 18.7416C67.3252 20.4691 71.1147 23.0012 74.3067 26.1932L87.565 39.4515" stroke="black" stroke-width="2" stroke-linecap="round" stroke-linejoin="round"/>
<path d="M31.1848 61.5485H12.4348V80.2985" stroke="black" stroke-width="2" stroke-linecap="round" stroke-linejoin="round"/>
<path d="M74.3069 74.8068C71.1149 77.9989 67.3254 80.5309 63.1549 82.2584C58.9843 83.9859 54.5143 84.875 50.0001 84.875C45.4859 84.875 41.0159 83.9859 36.8454 82.2584C32.6748 80.5309 28.8853 77.9989 25.6933 74.8068L12.4351 61.5486" stroke="black" stroke-width="2" stroke-linecap="round" stroke-linejoin="round"/>
</svg>
