<svg width="100" height="100" viewBox="0 0 100 100" fill="none" xmlns="http://www.w3.org/2000/svg">
<path d="M37.5001 68.7469H11.7188C11.0971 68.7469 10.501 68.5 10.0615 68.0605C9.62193 67.6209 9.375 67.0248 9.375 66.4032V40.6219C9.375 33.1627 12.3382 26.009 17.6126 20.7345C22.8871 15.4601 30.0407 12.4969 37.4999 12.4969H37.5C44.9592 12.4969 52.1129 15.4601 57.3874 20.7346C62.6618 26.009 65.625 33.1627 65.625 40.6219V40.622C65.625 48.0812 62.6618 55.2349 57.3874 60.5093C52.1129 65.7838 44.9593 68.7469 37.5001 68.7469V68.7469Z" stroke="#212121" stroke-width="2" stroke-linecap="round" stroke-linejoin="round"/>
<path d="M35.9758 68.7481C37.9166 74.2317 41.5093 78.9789 46.2593 82.3365C51.0093 85.6941 56.6831 87.4969 62.5 87.497H88.2813C88.9029 87.497 89.499 87.25 89.9386 86.8105C90.3781 86.371 90.625 85.7748 90.625 85.1532V59.3719C90.6249 52.1787 87.8688 45.2589 82.9235 40.0353C77.9781 34.8118 71.2193 31.6815 64.0368 31.2882" stroke="#212121" stroke-width="2" stroke-linecap="round" stroke-linejoin="round"/>
</svg>
