<svg width="100" height="101" viewBox="0 0 100 101" fill="none" xmlns="http://www.w3.org/2000/svg">
<path d="M58.4649 77.017L52.6799 86.6587C52.4023 87.1214 52.0095 87.5044 51.5399 87.7703C51.0703 88.0362 50.5399 88.1759 50.0002 88.1759C49.4606 88.1759 48.9302 88.0362 48.4606 87.7703C47.991 87.5044 47.5982 87.1214 47.3206 86.6587L41.5356 77.017C41.2579 76.5543 40.8652 76.1713 40.3956 75.9054C39.926 75.6396 39.3955 75.4998 38.8559 75.4998H15.6252C14.7964 75.4998 14.0016 75.1706 13.4155 74.5845C12.8295 73.9985 12.5002 73.2036 12.5002 72.3748V22.375C12.5002 21.5462 12.8295 20.7513 13.4155 20.1653C14.0016 19.5792 14.7964 19.25 15.6252 19.25H84.3752C85.204 19.25 85.9989 19.5792 86.585 20.1653C87.171 20.7513 87.5002 21.5462 87.5002 22.375V72.375C87.5002 72.7854 87.4194 73.1917 87.2624 73.5709C87.1053 73.95 86.8751 74.2945 86.5849 74.5847C86.2948 74.8749 85.9503 75.1051 85.5711 75.2621C85.192 75.4192 84.7856 75.5 84.3752 75.5L61.1446 75.4998C60.605 75.4998 60.0745 75.6396 59.6049 75.9055C59.1353 76.1713 58.7426 76.5543 58.4649 77.017Z" stroke="#212121" stroke-width="2" stroke-linecap="round" stroke-linejoin="round"/>
<path d="M31.2496 52.0625C33.8385 52.0625 35.9371 49.9638 35.9371 47.375C35.9371 44.7862 33.8385 42.6875 31.2496 42.6875C28.6608 42.6875 26.5621 44.7862 26.5621 47.375C26.5621 49.9638 28.6608 52.0625 31.2496 52.0625Z" fill="black"/>
<path d="M50 52.0625C52.5888 52.0625 54.6875 49.9638 54.6875 47.375C54.6875 44.7862 52.5888 42.6875 50 42.6875C47.4112 42.6875 45.3125 44.7862 45.3125 47.375C45.3125 49.9638 47.4112 52.0625 50 52.0625Z" fill="black"/>
<path d="M68.7507 52.0625C71.3396 52.0625 73.4382 49.9638 73.4382 47.375C73.4382 44.7862 71.3396 42.6875 68.7507 42.6875C66.1619 42.6875 64.0632 44.7862 64.0632 47.375C64.0632 49.9638 66.1619 52.0625 68.7507 52.0625Z" fill="black"/>
</svg>
