<svg width="100" height="101" viewBox="0 0 100 101" fill="none" xmlns="http://www.w3.org/2000/svg">
<path d="M94.0303 48.0722L84.375 52.8999L71.875 28.9616L81.6286 24.0848C82.3614 23.7184 83.2088 23.6544 83.9883 23.9067C84.7678 24.1589 85.417 24.7072 85.7963 25.4334L95.4029 43.8307C95.595 44.1986 95.7119 44.601 95.7467 45.0145C95.7816 45.4281 95.7338 45.8444 95.606 46.2393C95.4782 46.6341 95.2731 46.9996 95.0026 47.3143C94.732 47.629 94.4015 47.8866 94.0303 48.0722V48.0722Z" stroke="#212121" stroke-width="2" stroke-linecap="round" stroke-linejoin="round"/>
<path d="M15.625 52.4812L5.96965 47.6536C5.59845 47.468 5.26795 47.2103 4.99742 46.8956C4.72689 46.5809 4.52175 46.2154 4.39398 45.8206C4.26621 45.4257 4.21837 45.0094 4.25324 44.5959C4.28812 44.1823 4.40501 43.7799 4.59711 43.412L14.2037 25.0147C14.5829 24.2885 15.2322 23.7402 16.0117 23.488C16.7912 23.2357 17.6386 23.2997 18.3713 23.6661L28.125 28.5429L15.625 52.4812Z" stroke="black" stroke-width="2" stroke-linecap="round" stroke-linejoin="round"/>
<path d="M84.375 52.8999L78.125 60.2116L63.7511 74.5855C63.3695 74.9671 62.8956 75.2433 62.3756 75.3874C61.8555 75.5314 61.307 75.5383 60.7835 75.4075L38.1441 69.7476C37.7194 69.6414 37.3218 69.4473 36.977 69.1776L15.625 52.4812" stroke="black" stroke-width="2" stroke-linecap="round" stroke-linejoin="round"/>
<path d="M78.125 60.2116L60.9375 47.7116L55.9375 51.4616C53.7738 53.0843 51.1422 53.9616 48.4375 53.9616C45.7329 53.9616 43.1012 53.0843 40.9375 51.4616L38.8201 49.8734C38.4619 49.6048 38.1656 49.2623 37.9513 48.8692C37.737 48.4761 37.6097 48.0416 37.5779 47.595C37.5462 47.1484 37.6108 46.7002 37.7673 46.2807C37.9239 45.8612 38.1688 45.4803 38.4854 45.1637L53.7722 29.8768C54.0624 29.5867 54.4069 29.3565 54.7861 29.1994C55.1652 29.0424 55.5716 28.9615 55.982 28.9615H71.875" stroke="black" stroke-width="2" stroke-linecap="round" stroke-linejoin="round"/>
<path d="M28.3494 28.5428L48.3962 22.6985C49.1124 22.4897 49.8795 22.544 50.5591 22.8515L64.0625 28.9615" stroke="black" stroke-width="2" stroke-linecap="round" stroke-linejoin="round"/>
<path d="M43.75 83.649L31.9768 80.7057C31.499 80.5863 31.0563 80.3556 30.6846 80.0326L21.875 72.375" stroke="black" stroke-width="2" stroke-linecap="round" stroke-linejoin="round"/>
</svg>
