<svg width="16" height="14" viewBox="0 0 16 14" fill="none" xmlns="http://www.w3.org/2000/svg">
<path d="M12.4273 0.824585L9.23389 1.99976" stroke="#D92120" stroke-width="0.0972124" stroke-linecap="round" stroke-linejoin="round" stroke-dasharray="0.55 0.55"/>
<path d="M2.97809 5.90027L1 7.95865" stroke="#D92120" stroke-width="0.0972124" stroke-linecap="round" stroke-linejoin="round" stroke-dasharray="0.55 0.55"/>
<path d="M9.20996 9.02773L12.2026 13.3799L15.0001 6.36169L9.20996 9.02773Z" stroke="#D92120" stroke-width="0.0972124" stroke-linecap="round" stroke-linejoin="round" stroke-dasharray="0.55 0.55"/>
<path d="M9.20996 9.02768L9.23368 2.00037L15.0001 6.36165" stroke="#D92120" stroke-width="0.0972124" stroke-linecap="round" stroke-linejoin="round" stroke-dasharray="0.55 0.55"/>
<path d="M9.23345 2.00037L2.97803 5.9018L9.20973 9.02768" stroke="#D92120" stroke-width="0.0972124" stroke-linecap="round" stroke-linejoin="round" stroke-dasharray="0.55 0.55"/>
<path d="M2.97803 5.90027L4.53823 12.955L9.20973 9.02616" stroke="#D92120" stroke-width="0.0972124" stroke-linecap="round" stroke-linejoin="round" stroke-dasharray="0.55 0.55"/>
<path d="M2.97803 5.90122L4.30831 0.620239L9.23345 1.99979" stroke="#D92120" stroke-width="0.0972124" stroke-linecap="round" stroke-linejoin="round" stroke-dasharray="0.55 0.55"/>
<path d="M4.53857 12.955L12.2027 13.3783" stroke="#D92120" stroke-width="0.0972124" stroke-linecap="round" stroke-linejoin="round" stroke-dasharray="0.55 0.55"/>
<path d="M7.21551 4.7005L4.30859 0.620239" stroke="#D92120" stroke-width="0.7" stroke-linecap="round" stroke-linejoin="round"/>
<path d="M1 7.95996L7.26455 13.1825" stroke="#D92120" stroke-width="0.7" stroke-linecap="round" stroke-linejoin="round"/>
<path d="M1 7.95966L7.21528 4.70056" stroke="#D92120" stroke-width="0.7" stroke-linecap="round" stroke-linejoin="round"/>
<path d="M12.2027 13.3783L7.26483 13.1812L4.53857 12.955" stroke="#D92120" stroke-width="0.7" stroke-linecap="round" stroke-linejoin="round"/>
<path d="M12.2025 13.3793L14.5948 8.54901L14.9999 6.36107L12.4269 0.824617L4.30837 0.620239L1 7.9596L4.53829 12.9559" stroke="#D92120" stroke-width="0.7" stroke-linecap="round" stroke-linejoin="round"/>
<path d="M7.21533 4.70056L7.2646 13.1822L14.5948 8.54907" stroke="#D92120" stroke-width="0.7" stroke-linecap="round" stroke-linejoin="round"/>
<path d="M12.427 0.824585L7.21533 4.70047L14.5948 8.54898L12.427 0.824585Z" stroke="#D92120" stroke-width="0.7" stroke-linecap="round" stroke-linejoin="round"/>
</svg>
