<svg width="332" height="302" viewBox="0 0 332 302" fill="none" xmlns="http://www.w3.org/2000/svg">
<g opacity="1">
<path d="M269.679 5.80469L194.593 33.4363" stroke="white" stroke-linecap="round" stroke-linejoin="round" stroke-dasharray="5.67 5.67"/>
<path d="M47.5103 125.172L1 173.57" stroke="white" stroke-linecap="round" stroke-linejoin="round" stroke-dasharray="5.67 5.67"/>
<path d="M194.035 198.668L264.401 301L330.176 135.982L194.035 198.668Z" stroke="white" stroke-linecap="round" stroke-linejoin="round" stroke-dasharray="5.67 5.67"/>
<path d="M194.035 198.669L194.593 33.4375L330.176 135.983" stroke="white" stroke-linecap="round" stroke-linejoin="round" stroke-dasharray="5.67 5.67"/>
<path d="M194.592 33.4375L47.5098 125.171L194.034 198.669" stroke="white" stroke-linecap="round" stroke-linejoin="round" stroke-dasharray="5.67 5.67"/>
<path d="M47.5098 125.172L84.1945 291.047L194.034 198.67" stroke="white" stroke-linecap="round" stroke-linejoin="round" stroke-dasharray="5.67 5.67"/>
<path d="M47.5107 125.17L78.7893 1L194.593 33.4371" stroke="white" stroke-linecap="round" stroke-linejoin="round" stroke-dasharray="5.67 5.67"/>
<path d="M84.1953 291.045L264.401 300.999" stroke="white" stroke-linecap="round" stroke-linejoin="round" stroke-dasharray="5.67 5.67"/>
<path d="M147.139 96.9382L78.7891 1" stroke="white" stroke-width="2" stroke-linecap="round" stroke-linejoin="round"/>
<path d="M1 173.568L148.297 296.366" stroke="white" stroke-width="2" stroke-linecap="round" stroke-linejoin="round"/>
<path d="M1 173.568L147.138 96.9375" stroke="white" stroke-width="2" stroke-linecap="round" stroke-linejoin="round"/>
<path d="M264.401 300.999L148.297 296.365L84.1953 291.045" stroke="white" stroke-width="2" stroke-linecap="round" stroke-linejoin="round"/>
<path d="M264.401 301L320.651 187.427L330.176 135.983L269.678 5.80549L78.7889 1L1 173.569L84.1951 291.046" stroke="white" stroke-width="2" stroke-linecap="round" stroke-linejoin="round"/>
<path d="M147.139 96.9375L148.297 296.365L320.651 187.427" stroke="white" stroke-width="2" stroke-linecap="round" stroke-linejoin="round"/>
<path d="M269.679 5.80469L147.139 96.9374L320.651 187.427L269.679 5.80469Z" stroke="white" stroke-width="2" stroke-linecap="round" stroke-linejoin="round"/>
</g>
</svg>
