<svg width="34" height="31" viewBox="0 0 34 31" fill="none" xmlns="http://www.w3.org/2000/svg">
<path d="M27.1196 1.46729L19.8203 4.15342" stroke="#D92120" stroke-width="0.293333" stroke-linecap="round" stroke-linejoin="round" stroke-dasharray="1.66 1.66"/>
<path d="M5.52138 13.0708L1 17.7757" stroke="#D92120" stroke-width="0.293333" stroke-linecap="round" stroke-linejoin="round" stroke-dasharray="1.66 1.66"/>
<path d="M19.7656 20.2159L26.6061 30.1638L33.0002 14.1221L19.7656 20.2159Z" stroke="#D92120" stroke-width="0.293333" stroke-linecap="round" stroke-linejoin="round" stroke-dasharray="1.66 1.66"/>
<path d="M19.7656 20.2159L19.8198 4.15332L33.0002 14.122" stroke="#D92120" stroke-width="0.293333" stroke-linecap="round" stroke-linejoin="round" stroke-dasharray="1.66 1.66"/>
<path d="M19.8197 4.15332L5.52148 13.0709L19.7655 20.2159" stroke="#D92120" stroke-width="0.293333" stroke-linecap="round" stroke-linejoin="round" stroke-dasharray="1.66 1.66"/>
<path d="M5.52148 13.0708L9.0877 29.1959L19.7655 20.2157" stroke="#D92120" stroke-width="0.293333" stroke-linecap="round" stroke-linejoin="round" stroke-dasharray="1.66 1.66"/>
<path d="M5.52148 13.0709L8.56215 1L19.8197 4.15328" stroke="#D92120" stroke-width="0.293333" stroke-linecap="round" stroke-linejoin="round" stroke-dasharray="1.66 1.66"/>
<path d="M9.08789 29.196L26.6061 30.1637" stroke="#D92120" stroke-width="0.293333" stroke-linecap="round" stroke-linejoin="round" stroke-dasharray="1.66 1.66"/>
<path d="M15.2069 10.3264L8.5625 1" stroke="#D92120" stroke-width="0.586667" stroke-linecap="round" stroke-linejoin="round"/>
<path d="M1 17.7759L15.3191 29.7133" stroke="#D92120" stroke-width="0.586667" stroke-linecap="round" stroke-linejoin="round"/>
<path d="M1 17.7758L15.2065 10.3264" stroke="#D92120" stroke-width="0.586667" stroke-linecap="round" stroke-linejoin="round"/>
<path d="M26.6061 30.1637L15.3194 29.7132L9.08789 29.196" stroke="#D92120" stroke-width="0.586667" stroke-linecap="round" stroke-linejoin="round"/>
<path d="M26.6058 30.1637L32.074 19.123L33 14.122L27.1189 1.46715L8.56204 1L1 17.7758L9.08759 29.196" stroke="#D92120" stroke-width="0.586667" stroke-linecap="round" stroke-linejoin="round"/>
<path d="M15.207 10.3264L15.3196 29.7133L32.0746 19.1231" stroke="#D92120" stroke-width="0.586667" stroke-linecap="round" stroke-linejoin="round"/>
<path d="M27.1194 1.46729L15.207 10.3265L32.0746 19.1232L27.1194 1.46729Z" stroke="#D92120" stroke-width="0.586667" stroke-linecap="round" stroke-linejoin="round"/>
</svg>
