<svg width="452" height="448" viewBox="0 0 452 448" fill="none" xmlns="http://www.w3.org/2000/svg">
<path d="M413.463 107.691L405.732 138.163L451 237.201" stroke="#D92120" stroke-width="2" stroke-linecap="round" stroke-linejoin="round"/>
<path d="M127.325 64.5415L21.3457 125.516" stroke="#D92120" stroke-width="2" stroke-linecap="round" stroke-linejoin="round"/>
<path d="M21.3457 125.517L66.1802 201.797" stroke="#D92120" stroke-width="2" stroke-linecap="round" stroke-linejoin="round"/>
<path d="M399.439 368.426L409.782 270.718L450.999 237.2" stroke="#D92120" stroke-width="2" stroke-linecap="round" stroke-linejoin="round"/>
<path d="M409.783 270.719L405.732 138.163" stroke="#D92120" stroke-width="2" stroke-linecap="round" stroke-linejoin="round"/>
<path d="M409.783 270.719L315.383 361.749" stroke="#D92120" stroke-width="2" stroke-linecap="round" stroke-linejoin="round"/>
<path d="M409.782 270.718L317.484 211.598" stroke="#D92120" stroke-width="2" stroke-linecap="round" stroke-linejoin="round"/>
<path d="M279.361 68.7472L344.758 38.9863L405.733 138.163" stroke="#D92120" stroke-width="2" stroke-linecap="round" stroke-linejoin="round"/>
<path d="M315.383 361.747L189.908 409.705L276.331 446.562" stroke="#D92120" stroke-width="2" stroke-linecap="round" stroke-linejoin="round"/>
<path d="M189.907 409.705L132.844 438.244" stroke="#D92120" stroke-width="2" stroke-linecap="round" stroke-linejoin="round"/>
<path d="M189.909 409.705L69.7988 349.225" stroke="#D92120" stroke-width="2" stroke-linecap="round" stroke-linejoin="round"/>
<path d="M189.907 409.706L182.672 296.383" stroke="#D92120" stroke-width="2" stroke-linecap="round" stroke-linejoin="round"/>
<path d="M101.244 32.8635L127.325 64.5414" stroke="#D92120" stroke-width="2" stroke-linecap="round" stroke-linejoin="round"/>
<path d="M317.501 211.599L188.455 155.247L279.361 68.7471" stroke="#D92120" stroke-width="2" stroke-linecap="round" stroke-linejoin="round"/>
<path d="M188.454 155.246L182.672 296.382" stroke="#D92120" stroke-width="2" stroke-linecap="round" stroke-linejoin="round"/>
<path d="M188.454 155.246L127.324 64.5415" stroke="#D92120" stroke-width="2" stroke-linecap="round" stroke-linejoin="round"/>
<path d="M188.456 155.246L66.1816 201.796" stroke="#D92120" stroke-width="2" stroke-linecap="round" stroke-linejoin="round"/>
<path d="M66.1809 201.798L1.99023 253.017L69.7831 349.226" stroke="#D92120" stroke-width="2" stroke-linecap="round" stroke-linejoin="round"/>
<path d="M1.99023 253.017L21.3464 125.517" stroke="#D92120" stroke-width="2" stroke-linecap="round" stroke-linejoin="round"/>
<path d="M221.787 1L101.244 32.8634L21.3456 125.516L1 218.927L1.98945 253.016L28.2872 349.426L132.844 438.245L276.33 446.562L338.047 415.596L399.44 368.427L451 237.201L413.462 107.691L344.757 38.9857" stroke="#D92120" stroke-width="2" stroke-linecap="round" stroke-linejoin="round"/>
<path d="M276.33 446.562L399.44 368.427" stroke="#D92120" stroke-width="2" stroke-linecap="round" stroke-linejoin="round"/>
<path d="M405.732 138.163L279.361 68.7465L221.787 1" stroke="#D92120" stroke-width="2" stroke-linecap="round" stroke-linejoin="round"/>
<path d="M276.33 446.562L315.383 361.747L399.44 368.426" stroke="#D92120" stroke-width="2" stroke-linecap="round" stroke-linejoin="round"/>
<path d="M279.361 68.7471L317.502 211.599L405.733 138.163" stroke="#D92120" stroke-width="2" stroke-linecap="round" stroke-linejoin="round"/>
<path d="M317.485 211.598L315.383 361.747" stroke="#D92120" stroke-width="2" stroke-linecap="round" stroke-linejoin="round"/>
<path d="M28.2871 349.426L69.7822 349.225L132.844 438.244H132.968" stroke="#D92120" stroke-width="2" stroke-linecap="round" stroke-linejoin="round"/>
<path d="M317.5 211.598L182.672 296.382L315.382 361.747" stroke="#D92120" stroke-width="2" stroke-linecap="round" stroke-linejoin="round"/>
<path d="M182.674 296.383L69.7988 349.225" stroke="#D92120" stroke-width="2" stroke-linecap="round" stroke-linejoin="round"/>
<path d="M221.787 1L344.757 38.9857" stroke="#D92120" stroke-width="2" stroke-linecap="round" stroke-linejoin="round"/>
<path d="M221.786 1L127.324 64.5413L279.36 68.7465" stroke="#D92120" stroke-width="2" stroke-linecap="round" stroke-linejoin="round"/>
<path d="M182.674 296.383L66.1816 201.798L69.7839 349.226" stroke="#D92120" stroke-width="2" stroke-linecap="round" stroke-linejoin="round"/>
<path d="M66.1816 201.797L127.327 64.5415" stroke="#D92120" stroke-width="2" stroke-linecap="round" stroke-linejoin="round"/>
</svg>
