<svg width="100" height="101" viewBox="0 0 100 101" fill="none" xmlns="http://www.w3.org/2000/svg">
<circle cx="50" cy="50.5" r="50" fill="#D92120"/>
<path d="M76.4182 49.0433L70.625 51.9399L63.125 37.5769L68.9772 34.6508C69.4169 34.431 69.9253 34.3926 70.393 34.544C70.8607 34.6953 71.2502 35.0243 71.4778 35.46L77.2417 46.4984C77.357 46.7191 77.4271 46.9606 77.448 47.2087C77.469 47.4568 77.4403 47.7066 77.3636 47.9435C77.2869 48.1804 77.1639 48.3997 77.0015 48.5885C76.8392 48.7773 76.6409 48.9319 76.4182 49.0433V49.0433Z" stroke="white" stroke-width="2" stroke-linecap="round" stroke-linejoin="round"/>
<path d="M29.3765 51.6887L23.5833 48.7921C23.3606 48.6807 23.1623 48.5261 23 48.3373C22.8377 48.1485 22.7146 47.9292 22.638 47.6923C22.5613 47.4554 22.5326 47.2056 22.5535 46.9575C22.5744 46.7093 22.6446 46.4679 22.7598 46.2471L28.5238 35.2088C28.7513 34.773 29.1409 34.4441 29.6086 34.2927C30.0763 34.1414 30.5847 34.1798 31.0244 34.3996L36.8765 37.3257L29.3765 51.6887Z" stroke="white" stroke-width="2" stroke-linecap="round" stroke-linejoin="round"/>
<path d="M70.625 51.9399L66.875 56.327L58.2507 64.9513C58.0217 65.1802 57.7374 65.346 57.4253 65.4324C57.1133 65.5188 56.7842 65.523 56.4701 65.4445L42.8864 62.0486C42.6317 61.9849 42.3931 61.8684 42.1862 61.7066L29.375 51.6887" stroke="white" stroke-width="2" stroke-linecap="round" stroke-linejoin="round"/>
<path d="M66.876 56.3269L56.5635 48.8269L53.5635 51.0769C52.2652 52.0506 50.6862 52.5769 49.0635 52.5769C47.4407 52.5769 45.8617 52.0506 44.5635 51.0769L43.293 50.124C43.0781 49.9629 42.9003 49.7574 42.7717 49.5215C42.6431 49.2857 42.5667 49.0249 42.5477 48.757C42.5286 48.489 42.5674 48.2201 42.6613 47.9684C42.7553 47.7167 42.9022 47.4882 43.0921 47.2982L52.2643 38.1261C52.4384 37.952 52.6451 37.8139 52.8726 37.7196C53.1001 37.6254 53.3439 37.5769 53.5901 37.5769H63.126" stroke="white" stroke-width="2" stroke-linecap="round" stroke-linejoin="round"/>
<path d="M37.0078 37.3257L49.0359 33.8191C49.4656 33.6939 49.9259 33.7264 50.3337 33.9109L58.4357 37.5769" stroke="white" stroke-width="2" stroke-linecap="round" stroke-linejoin="round"/>
<path d="M46.25 70.3894L39.1861 68.6234C38.8994 68.5518 38.6338 68.4134 38.4108 68.2195L33.125 63.625" stroke="white" stroke-width="2" stroke-linecap="round" stroke-linejoin="round"/>
</svg>
