<svg width="100" height="101" viewBox="0 0 100 101" fill="none" xmlns="http://www.w3.org/2000/svg">
<circle cx="50" cy="50.5" r="50" fill="#D92120"/>
<path d="M50 50.5L72.5 28" stroke="white" stroke-width="2" stroke-linecap="round" stroke-linejoin="round"/>
<path d="M65.9111 34.5901C61.9255 30.6123 56.592 28.2754 50.9659 28.0416C45.3397 27.8078 39.8308 29.6941 35.5288 33.3275C31.2269 36.9609 28.4454 42.0766 27.7346 47.6625C27.0237 53.2485 28.4354 58.8978 31.6902 63.4927C34.9451 68.0877 39.8061 71.2937 45.3114 72.4764C50.8168 73.6591 56.5656 72.7324 61.4204 69.8796C66.2753 67.0268 69.8826 62.4557 71.5286 57.0707C73.1746 51.6856 72.7396 45.8789 70.3094 40.7993" stroke="white" stroke-width="2" stroke-linecap="round" stroke-linejoin="round"/>
<path d="M57.9543 42.545C56.0944 40.6852 53.6416 39.5359 51.0222 39.2968C48.4028 39.0578 45.7825 39.7441 43.6166 41.2365C41.4508 42.7289 39.8763 44.9331 39.1669 47.4659C38.4575 49.9986 38.658 52.6999 39.7336 55.1002C40.8091 57.5005 42.6918 59.4481 45.0542 60.6044C47.4167 61.7607 50.1097 62.0526 52.665 61.4294C55.2204 60.8063 57.4767 59.3074 59.0416 57.1934C60.6066 55.0793 61.3813 52.4837 61.2311 49.8578" stroke="white" stroke-width="2" stroke-linecap="round" stroke-linejoin="round"/>
</svg>
