<svg width="41" height="40" viewBox="0 0 41 40" fill="none" xmlns="http://www.w3.org/2000/svg">
<path d="M38.2504 9.47835C36.8896 11.4266 35.1918 13.1161 33.237 14.4674L33.2369 14.4673C33.1133 17.8847 32.1157 21.2132 30.3396 24.1353C28.5634 27.0574 26.0679 29.4755 23.0913 31.1587C20.1147 32.8419 16.7563 33.734 13.3368 33.7499C9.91728 33.7659 6.55075 32.905 3.55859 31.2496L3.55961 31.2478C7.46687 31.1937 11.2717 29.9905 14.4997 27.7883L14.4996 27.7885C11.0442 25.4334 8.41238 22.0559 6.97323 18.1296C5.53408 14.2034 5.35973 9.92514 6.47463 5.89478L6.47457 5.89481C8.0714 8.35397 10.1895 10.4319 12.6787 11.9814C15.168 13.5309 17.9675 14.514 20.879 14.8611L20.8785 14.8612C20.5719 13.3997 20.7987 11.8767 21.5177 10.5678C22.2367 9.25892 23.4006 8.2507 24.7986 7.72558C26.1966 7.20046 27.7364 7.19315 29.1393 7.70496C30.5422 8.21677 31.7156 9.21389 32.447 10.5159L32.447 10.5166C34.422 10.4576 36.3775 10.1078 38.2504 9.47835" stroke="white" stroke-width="2" stroke-linecap="round" stroke-linejoin="round"/>
</svg>
