<svg width="1230" height="433" viewBox="0 0 1230 433" fill="none" xmlns="http://www.w3.org/2000/svg" xmlns:xlink="http://www.w3.org/1999/xlink">
<path fill-rule="evenodd" clip-rule="evenodd" d="M420 30C420 13.4315 433.431 0 450 0H920C933.807 0 945 11.1929 945 25C945 38.8071 956.193 50 970 50H1200C1216.57 50 1230 63.4315 1230 80V250C1230 266.569 1216.57 280 1200 280H945C928.431 280 915 293.431 915 310V403C915 419.569 901.569 433 885 433H30C13.4315 433 0 419.569 0 403V236C0 219.431 13.4315 206 30 206H390C406.569 206 420 192.569 420 176V30Z" fill="black"/>
</svg>
