<svg width="930" height="433" viewBox="0 0 930 433" fill="none" xmlns="http://www.w3.org/2000/svg">
  <path d="M 340.5 30 C 340.5 13.708 353.708 0.5 370 0.5 L 650 0.5 C 663.531 0.5 674.5 11.469 674.5 25 C 674.5 39.083 685.917 50.5 700 50.5 L 900 50.5 C 916.29 50.5 929.5 63.708 929.5 80 L 929.5 250 C 929.5 266.292 916.29 279.5 900 279.5 L 675 279.5 C 658.155 279.5 644.5 293.155 644.5 310 L 644.5 403 C 644.5 419.292 631.292 432.5 615 432.5 L 30 432.5 C 13.708 432.5 0.5 419.292 0.5 403 L 0.5 236 C 0.5 219.708 13.708 206.5 30 206.5 L 310 206.5 C 326.845 206.5 340.5 192.845 340.5 176 L 340.5 30 Z" stroke="#D92120" stroke-opacity="0.5"/>
</svg>