<svg width="770" height="433" xmlns="http://www.w3.org/2000/svg" xmlns:svg="http://www.w3.org/2000/svg">
  <path clip-rule="evenodd" d="m383.66,30c0,-16.57 11.21,-29 21.34,-29l153.13,-1c10.44,0 21.28,9.19 20.28,25c-1,15.81 6.85,25 20.29,25l145.96,0c15.13,0 25.34,12.43 25.34,27l0,170.5c1,16.57 -10.21,30 -23.34,30l-225.5,1c-19,1 -27.5,17.5 -25.5,36c0,-0.5 0,88.5 0,88.5c0,16.57 -12.21,29 -22.34,29l-450.32,0c-10.13,0 -22.34,-12.43 -22.34,-29l0,-167c0,-16.57 13.21,-30 27.34,-30l332.16,-1c10.13,0 23.5,-12.43 23.5,-29l0,-146z" fill-rule="evenodd" stroke="black"/>
</svg>