<svg width="1230" height="433" viewBox="0 0 1230 433" fill="none" xmlns="http://www.w3.org/2000/svg" xmlns:xlink="http://www.w3.org/1999/xlink">
<path d="M420.5 30C420.5 13.7076 433.708 0.5 450 0.5H920C933.531 0.5 944.5 11.469 944.5 25C944.5 39.0833 955.917 50.5 970 50.5H1200C1216.29 50.5 1229.5 63.7076 1229.5 80V250C1229.5 266.292 1216.29 279.5 1200 279.5H945C928.155 279.5 914.5 293.155 914.5 310V403C914.5 419.292 901.292 432.5 885 432.5H30C13.7076 432.5 0.5 419.292 0.5 403V236C0.5 219.708 13.7076 206.5 30 206.5H390C406.845 206.5 420.5 192.845 420.5 176V30Z" stroke="#D92120" stroke-opacity="0.5"/>
</svg>
