<?xml version="1.0" standalone="no"?>
<!DOCTYPE svg PUBLIC "-//W3C//DTD SVG 20010904//EN"
 "http://www.w3.org/TR/2001/REC-SVG-20010904/DTD/svg10.dtd">
<svg version="1.0" xmlns="http://www.w3.org/2000/svg"
 width="512.000000pt" height="512.000000pt" viewBox="0 0 512.000000 512.000000"
 preserveAspectRatio="xMidYMid meet">
<metadata>
Created by potrace 1.14, written by Peter Selinger 2001-2017
</metadata>
<g transform="translate(0.000000,512.000000) scale(0.100000,-0.100000)"
fill="#000000" stroke="none">
<path d="M3390 4100 c0 -11 5 -20 10 -20 6 0 10 9 10 20 0 11 -4 20 -10 20 -5
0 -10 -9 -10 -20z"/>
<path d="M3390 4005 c0 -14 5 -25 10 -25 6 0 10 11 10 25 0 14 -4 25 -10 25
-5 0 -10 -11 -10 -25z"/>
<path d="M3390 3915 c0 -14 5 -25 10 -25 6 0 10 11 10 25 0 14 -4 25 -10 25
-5 0 -10 -11 -10 -25z"/>
<path d="M3390 3820 c0 -11 5 -20 10 -20 6 0 10 9 10 20 0 11 -4 20 -10 20 -5
0 -10 -9 -10 -20z"/>
<path d="M3390 3730 c0 -11 5 -20 10 -20 6 0 10 9 10 20 0 11 -4 20 -10 20 -5
0 -10 -9 -10 -20z"/>
<path d="M3390 3645 c0 -8 5 -15 10 -15 6 0 10 7 10 15 0 8 -4 15 -10 15 -5 0
-10 -7 -10 -15z"/>
<path d="M2660 3517 c-169 -93 -192 -109 -260 -181 l-75 -79 82 6 82 6 5 -32
c3 -18 12 -149 20 -292 14 -247 13 -265 -4 -360 -30 -157 -41 -136 133 -249
128 -84 166 -115 242 -197 49 -54 92 -96 96 -94 3 2 48 94 99 205 l93 200 108
0 c76 0 109 -4 113 -12 5 -10 7 -10 12 0 4 8 32 12 88 12 l83 0 94 -206 c83
-183 95 -203 107 -187 7 10 40 65 73 123 l61 105 110 75 c61 41 114 76 119 78
5 2 49 -22 99 -52 l90 -56 99 0 98 0 47 50 c25 27 46 57 46 66 0 9 -19 53 -42
96 l-43 80 -3 -91 -3 -91 -94 0 c-52 0 -95 3 -95 8 0 4 41 131 90 282 l90 274
0 211 0 210 -110 58 -109 58 -92 -138 c-128 -191 -260 -386 -269 -396 -4 -5
41 130 100 300 59 169 104 309 100 311 -4 1 -130 -34 -281 -79 -151 -45 -303
-90 -338 -100 -35 -10 -64 -20 -65 -21 -2 -3 -39 -136 -102 -366 -30 -105 -40
-130 -49 -120 -7 7 -42 60 -77 118 -36 58 -119 188 -183 290 -65 102 -131 206
-147 233 -16 26 -35 47 -41 46 -7 0 -95 -47 -197 -102z m1826 -514 c-9 -10
-150 -87 -262 -144 l-82 -42 -101 73 c-56 40 -101 74 -99 75 5 4 117 13 318
26 102 6 187 13 189 15 8 8 44 4 37 -3z"/>
<path d="M3390 2360 c0 -11 5 -20 10 -20 6 0 10 9 10 20 0 11 -4 20 -10 20 -5
0 -10 -9 -10 -20z"/>
<path d="M3390 2270 c0 -11 5 -20 10 -20 6 0 10 9 10 20 0 11 -4 20 -10 20 -5
0 -10 -9 -10 -20z"/>
<path d="M3390 2180 c0 -11 5 -20 10 -20 6 0 10 9 10 20 0 11 -4 20 -10 20 -5
0 -10 -9 -10 -20z"/>
<path d="M3390 2090 c0 -11 5 -20 10 -20 6 0 10 9 10 20 0 11 -4 20 -10 20 -5
0 -10 -9 -10 -20z"/>
<path d="M3390 2000 c0 -11 5 -20 10 -20 6 0 10 9 10 20 0 11 -4 20 -10 20 -5
0 -10 -9 -10 -20z"/>
<path d="M4246 1940 c-41 -13 -93 -66 -112 -117 -12 -31 -15 -64 -12 -123 4
-71 8 -85 35 -118 48 -59 87 -77 168 -77 47 0 81 6 103 18 31 17 32 20 32 81
0 56 2 64 21 69 48 13 4 27 -82 27 -72 0 -89 -3 -89 -15 0 -12 13 -15 60 -15
l60 0 0 -60 0 -59 -37 -10 c-102 -29 -195 7 -229 86 -8 18 -14 61 -14 96 0 72
27 137 72 170 62 46 183 26 208 -34 19 -44 30 -35 30 26 0 54 -6 65 -26 45 -7
-7 -22 -6 -47 5 -40 16 -95 18 -141 5z"/>
<path d="M500 1926 c0 -9 7 -16 15 -16 13 0 15 -27 15 -185 0 -158 -2 -185
-15 -185 -8 0 -15 -7 -15 -15 0 -13 12 -15 67 -13 74 3 100 25 36 30 l-38 3
-3 184 c-1 102 1 181 5 177 5 -4 33 -65 64 -134 73 -167 76 -167 147 -2 29 69
58 129 63 135 6 6 8 -58 7 -175 l-3 -185 -38 -3 c-24 -2 -37 -8 -34 -15 5 -17
139 -16 145 1 2 7 -5 12 -17 12 -21 0 -21 4 -21 185 0 158 2 185 15 185 8 0
15 7 15 16 0 12 -10 14 -46 12 l-47 -3 -53 -124 c-30 -68 -55 -126 -57 -128
-2 -2 -29 54 -60 124 l-56 128 -45 3 c-36 2 -46 0 -46 -12z"/>
<path d="M1007 1934 c-14 -15 7 -24 55 -24 36 0 49 -4 46 -12 -91 -257 -132
-357 -150 -360 -10 -2 -19 -7 -18 -13 0 -15 142 -13 148 3 2 8 -9 12 -38 12
-36 0 -41 2 -35 18 4 9 14 36 22 60 l15 42 99 0 99 0 15 -37 c32 -77 31 -83
-10 -83 -25 0 -35 -4 -32 -12 5 -18 139 -18 145 0 2 7 -5 12 -18 12 -24 0 -18
-12 -110 233 l-63 167 -82 0 c-45 0 -85 -3 -88 -6z m191 -131 l40 -108 -80 -3
c-44 -2 -83 -1 -85 2 -7 6 69 216 78 216 4 0 25 -48 47 -107z"/>
<path d="M1410 1925 c0 -10 10 -15 30 -15 l30 0 0 -185 0 -185 -31 0 c-20 0
-29 -4 -26 -12 2 -9 28 -13 82 -13 54 0 80 4 83 13 2 8 -9 12 -37 12 l-41 0 0
80 0 80 58 0 c54 0 62 -3 94 -34 20 -19 53 -62 73 -96 32 -52 41 -61 63 -58
31 4 43 28 13 28 -14 0 -34 21 -65 70 -25 38 -54 75 -66 82 -24 15 -26 28 -4
28 9 0 32 16 51 35 32 32 35 40 30 76 -11 85 -61 109 -222 109 -96 0 -115 -3
-115 -15z m267 -35 c59 -35 54 -103 -9 -136 -18 -9 -63 -19 -100 -22 l-68 -5
0 92 0 91 73 0 c54 0 80 -5 104 -20z"/>
<path d="M1860 1925 c0 -10 10 -15 30 -15 l30 0 0 -185 0 -185 -31 0 c-20 0
-29 -4 -26 -12 2 -9 28 -13 82 -13 54 0 80 4 83 13 2 8 -9 12 -37 12 l-41 0 0
68 c0 62 3 71 28 95 15 15 35 27 44 27 33 0 82 -56 121 -138 l38 -83 37 3 c43
3 50 22 10 26 -23 3 -33 16 -68 88 -31 64 -50 90 -80 110 l-39 26 82 74 c45
40 90 73 100 74 9 0 17 7 17 15 0 12 -14 15 -65 15 -50 0 -65 -3 -65 -14 0 -8
11 -16 25 -18 21 -3 13 -13 -75 -90 -54 -49 -101 -88 -104 -88 -3 0 -6 40 -6
89 l0 90 35 3 c69 6 41 23 -42 26 -69 2 -83 0 -83 -13z"/>
<path d="M2310 1925 c0 -10 10 -15 30 -15 l30 0 0 -185 0 -185 -31 0 c-20 0
-29 -4 -26 -12 3 -10 47 -13 178 -13 l174 0 0 64 c0 82 -22 98 -27 19 l-3 -53
-117 -3 -118 -3 0 91 0 90 54 0 c52 0 55 -1 58 -27 6 -54 23 -27 26 40 2 55 0
67 -13 67 -9 0 -15 -9 -15 -25 0 -24 -3 -25 -55 -25 l-55 0 0 80 0 80 110 0
110 0 0 -45 c0 -33 4 -45 15 -45 12 0 15 13 15 60 l0 60 -170 0 c-144 0 -170
-2 -170 -15z"/>
<path d="M2782 1863 c4 -93 22 -104 26 -15 l3 62 59 0 60 0 0 -184 0 -185 -47
-3 c-90 -6 -44 -23 67 -26 92 -2 110 0 110 12 0 11 -14 16 -47 18 l-48 3 -3
183 -2 182 64 0 65 0 3 -62 c4 -89 22 -78 26 15 l3 77 -171 0 -171 0 3 -77z"/>
<path d="M3260 1925 c0 -12 13 -15 60 -15 l60 0 0 -185 0 -185 -61 0 c-44 0
-60 -3 -56 -12 5 -18 269 -18 274 -1 3 8 -15 13 -59 15 l-63 3 -3 183 -2 182
65 0 c51 0 65 3 65 15 0 13 -22 15 -140 15 -118 0 -140 -2 -140 -15z"/>
<path d="M3642 1928 c3 -7 17 -14 31 -16 l27 -3 0 -185 c0 -180 0 -184 -21
-184 -12 0 -19 -5 -16 -12 2 -9 26 -13 72 -13 46 0 70 4 73 13 2 8 -9 12 -37
12 l-41 0 0 177 c0 97 3 173 6 170 4 -3 55 -89 114 -189 79 -134 114 -184 129
-186 21 -3 21 -1 21 197 0 194 1 201 20 201 11 0 20 7 20 15 0 13 -13 15 -72
13 -76 -3 -100 -21 -35 -26 l37 -3 0 -171 c0 -94 -3 -168 -7 -164 -5 4 -55 87
-113 184 l-106 177 -53 3 c-40 2 -52 0 -49 -10z"/>
<path d="M2745 1410 c3 -5 13 -10 21 -10 12 0 14 -31 14 -185 0 -178 -1 -185
-20 -185 -11 0 -20 -7 -20 -15 0 -12 14 -15 70 -15 56 0 70 3 70 15 0 10 -11
15 -35 15 l-35 0 0 185 c0 102 2 185 4 185 2 0 30 -61 62 -135 38 -87 64 -135
74 -135 10 0 34 45 69 128 30 70 58 131 63 137 4 5 8 -75 8 -178 l0 -187 -35
0 c-24 0 -35 -5 -35 -15 0 -12 14 -15 70 -15 56 0 70 3 70 15 0 8 -9 15 -20
15 -19 0 -20 7 -20 185 0 178 1 185 20 185 11 0 20 5 20 10 0 6 -22 10 -48 10
l-48 0 -53 -125 c-29 -69 -57 -125 -61 -125 -4 0 -32 56 -61 125 l-54 125 -48
0 c-30 0 -46 -4 -42 -10z"/>
<path d="M3260 1410 c0 -6 28 -10 65 -10 l65 0 0 -185 0 -184 -62 -3 c-113 -5
-64 -23 72 -26 111 -2 130 0 130 13 0 12 -13 15 -60 15 l-60 0 0 185 0 185 60
0 c33 0 60 4 60 10 0 6 -52 10 -135 10 -83 0 -135 -4 -135 -10z"/>
<path d="M3660 1410 c0 -5 8 -10 18 -10 9 -1 46 -40 85 -91 l68 -89 -72 -95
c-39 -52 -78 -95 -85 -95 -8 0 -14 -7 -14 -15 0 -13 11 -15 63 -13 64 3 81 19
28 28 l-30 5 57 77 c31 43 62 77 67 77 9 0 114 -129 123 -151 2 -4 -10 -8 -27
-8 -21 0 -31 -5 -31 -15 0 -12 13 -15 59 -15 58 0 91 16 55 26 -11 3 -51 47
-91 97 -70 90 -71 93 -55 117 35 56 125 160 138 160 8 0 14 5 14 10 0 6 -27
10 -60 10 -33 0 -60 -4 -60 -10 0 -5 11 -10 25 -10 14 0 25 -3 25 -7 0 -9
-112 -155 -115 -151 -19 19 -115 145 -115 151 0 4 11 7 25 7 14 0 25 5 25 10
0 6 -27 10 -60 10 -33 0 -60 -4 -60 -10z"/>
</g>
</svg>
